<svg xmlns="http://www.w3.org/2000/svg" fill="currentColor" class="bi bi-shadows" viewBox="0 0 16 16"><path fill-rule="evenodd" d="M16 8A8 8 0 1 1 0 8a8 8 0 0 1 16 0m-8 7a7 7 0 1 1 3.608-13H8a.5.5 0 0 0 0 1h4.899q.47.46.846 1H8a.5.5 0 0 0 0 1h6.326q.23.481.384 1H8a.5.5 0 0 0 0 1h6.93q.07.49.07 1H8a.5.5 0 0 0 0 1h6.93a7 7 0 0 1-.22 1H8a.5.5 0 0 0 0 1h6.326q-.25.526-.58 1H8a.5.5 0 0 0 0 1h4.899a7 7 0 0 1-1.306 1.009A.5.5 0 0 0 11.5 14H8a.5.5 0 0 0 0 1"/></svg>9a7.032 7.032 0 0 1-1.306 1.009A.503.503 0 0 0 11.5 14H8a.5.5 0 0 0 0 1Z"/>
</svg>