<svg xmlns="http://www.w3.org/2000/svg"><defs><font id="Iconly---Bold" horiz-adv-x="1024"><font-face ascent="960" descent="-64" units-per-em="1024"/><glyph horiz-adv-x="512"/><glyph d="M659.187 798.707a202 202 0 0 1-2.56-32c0-96 77.653-173.611 173.227-173.611 10.667 0 20.907 1.237 31.573 2.944V251.763c0-144.683-85.333-230.443-230.4-230.443H315.763c-145.109 0-230.443 85.76-230.443 230.443v315.691c0 145.067 85.333 231.253 230.443 231.253zm8.576-259.413c-11.563 1.28-23.04-3.84-29.909-13.227L534.643 392.52l-118.229 93.013c-7.253 5.547-15.787 7.723-24.32 6.827-8.491-1.28-16.171-5.931-21.333-12.757L244.51 315.294l-2.603-3.84c-7.253-13.611-3.84-31.104 8.96-40.533 5.973-3.84 12.373-6.4 19.627-6.4 9.856-.427 19.2 4.736 25.173 12.8L402.76 415.177l121.6-91.349 3.84-2.517c13.653-7.253 30.72-3.883 40.533 8.96L692.04 489.375l-1.707-.853c6.827 9.387 8.107 21.333 3.413 32-4.651 10.667-14.933 17.92-25.984 18.773zm168.068 335.373c56.747 0 102.827-46.08 102.827-102.827s-46.08-102.827-102.827-102.827-102.827 46.08-102.827 102.827 46.08 102.827 102.827 102.827" data-tags="Activity" glyph-name="Activity" unicode=""/><glyph d="M398.905 326.07c170.041 0 313.572-27.025 313.572-131.526C712.477 90.125 568.028 64 398.905 64l-11.551.042c-164.94 1.226-302.02 29.357-302.02 131.483 0 104.419 144.449 130.544 313.572 130.544zm265.402 62.913c64.668 1.227 134.221-7.482 159.896-13.615 54.44-10.426 90.218-31.645 105.039-62.594 12.566-25.348 12.566-54.785 0-80.134-22.669-47.917-95.812-63.33-124.243-67.296-5.887-.818-10.604 4.088-9.978 9.894 14.528 132.793-100.989 195.755-130.881 210.228-1.252.695-1.545 1.676-1.419 2.33.083.409.626 1.063 1.586 1.186zM398.905 832c115.184 0 207.489-90.396 207.489-203.196s-92.306-203.196-207.489-203.196c-115.142 0-207.489 90.396-207.489 203.196S283.763 832 398.905 832m276.674-33.938c111.259 0 198.597-102.457 168.83-216.565-20.081-76.904-92.765-127.969-173.756-125.884-8.141.164-16.115.94-23.88 2.208-5.594.981-8.433 7.155-5.219 11.734 30.894 44.523 48.512 98.123 48.512 155.566 0 60.019-19.204 115.908-52.645 161.821-1.085 1.431-1.879 3.598-.793 5.274.835 1.308 2.505 2.044 4.05 2.371 11.272 2.249 22.836 3.475 34.902 3.475z" data-tags="User" glyph-name="User" unicode=""/><glyph d="M509.825 339.643c146.397 0 271.4-23.209 271.4-116.085 0-92.837-124.201-116.892-271.4-116.892-146.397 0-271.4 23.209-271.4 116.046 0 92.875 124.201 116.93 271.4 116.93zm234.071 55.925c55.969 1.037 116.14-6.648 138.374-12.104 47.105-9.261 78.089-28.166 90.925-55.641 10.85-22.556 10.85-48.724 0-71.242-19.637-42.614-82.941-56.294-107.544-59.829-5.081-.769-9.169 3.65-8.634 8.761 12.569 118.083-87.41 174.069-113.274 186.942-1.108.576-1.337 1.46-1.223 1.998.076.384.535.999 1.375 1.114zm-474.303.079 10.539-.095c.84-.115 1.261-.73 1.337-1.076.115-.576-.115-1.422-1.184-2.037-25.902-12.873-125.882-68.859-113.313-186.904.535-5.149-3.515-9.53-8.596-8.8-24.603 3.535-87.907 17.215-107.544 59.829-10.888 22.556-10.888 48.686 0 71.242 12.836 27.475 43.782 46.38 90.887 55.679 22.273 5.418 82.406 13.103 138.413 12.066zm240.232 393.686c99.674 0 179.596-80.31 179.596-180.602 0-100.253-79.922-180.64-179.596-180.64s-179.596 80.387-179.596 180.64c0 100.292 79.922 180.602 179.596 180.602m243.813-30.118c96.274 0 171.879-91.108 146.13-192.591-17.383-68.321-80.304-113.702-150.409-111.858-7.03.192-13.944.845-20.63 1.998-4.852.845-7.297 6.34-4.546 10.413 26.743 39.579 41.986 87.188 41.986 138.295 0 53.335-16.657 103.058-45.577 143.828-.917 1.268-1.605 3.228-.688 4.688.764 1.191 2.178 1.806 3.515 2.113 9.742 1.998 19.751 3.112 30.219 3.112zm-483.305.004c10.468 0 20.477-1.114 30.257-3.112 1.299-.307 2.751-.961 3.515-2.113.879-1.46.229-3.42-.688-4.688-28.92-40.77-45.577-90.493-45.577-143.828 0-51.106 15.243-98.716 41.986-138.295 2.751-4.073.306-9.568-4.546-10.413-6.724-1.191-13.601-1.806-20.63-1.998-70.104-1.844-133.026 43.537-150.409 111.858-25.788 101.483 49.818 192.591 146.092 192.591z" data-tags="User" glyph-name="User1" unicode=""/><glyph d="M405.333 319.352c173.517 0 320-28.551 320-138.818s-147.423-137.867-320-137.867c-173.517 0-320 28.594-320 138.818 0 110.267 147.38 137.867 320 137.867M810.623 640c21.173 0 38.356-17.47 38.356-38.896v-50.186h51.332c21.129 0 38.356-17.47 38.356-38.896s-17.227-38.896-38.356-38.896h-51.332v-50.231c0-21.426-17.184-38.896-38.356-38.896-21.129 0-38.356 17.47-38.356 38.896v50.231h-51.244c-21.173 0-38.356 17.47-38.356 38.896s17.184 38.896 38.356 38.896h51.244v50.186c0 21.426 17.227 38.896 38.356 38.896m-405.29 213.333c117.528 0 211.739-95.43 211.739-214.479s-94.211-214.479-211.739-214.479-211.739 95.43-211.739 214.479 94.211 214.479 211.739 214.479" data-tags="Add User" glyph-name="Add-User" unicode=""/><glyph d="M463.744 250.42c-2.475 2.411-13.056 11.514-21.76 19.993-54.741 49.712-144.341 179.395-171.691 247.271-4.395 10.308-13.696 36.37-14.293 50.294 0 13.342 3.072 26.061 9.301 38.198 8.704 15.13 22.4 27.267 38.571 33.917 11.221 4.281 44.8 10.932 45.397 10.932 36.736 6.65 96.427 10.308 162.389 10.308 62.848 0 120.107-3.658 157.397-9.103.597-.623 42.325-7.274 56.619-14.548 26.112-13.342 42.325-39.404 42.325-67.294v-2.411c-.64-18.164-16.853-56.362-17.451-56.362-27.392-64.218-112.597-190.909-169.216-241.826 0 0-14.549-14.34-23.637-20.575-13.056-9.726-29.227-14.548-45.397-14.548-18.048 0-34.859 5.445-48.555 15.753z" data-tags="Arrow - Down 2" glyph-name="Arrow---Down-2" unicode=""/><glyph d="M742.831 441.964c-5.386 9.984-15.628 16.208-26.768 16.208H542.604V800.67c0 17.294-13.71 31.33-30.603 31.33s-30.603-14.036-30.603-31.33V458.172H307.939c-11.18 0-21.422-6.224-26.768-16.208-5.427-9.984-5.06-22.182.857-31.831L486.09 78.621C491.721 69.514 501.473 64 512.001 64s20.28 5.514 25.911 14.621l204.062 331.512a32.2 32.2 0 0 1 4.692 16.709c0 5.18-1.306 10.402-3.836 15.122z" data-tags="Arrow - Down 3" glyph-name="Arrow---Down-3" unicode=""/><glyph d="M512.004 874.671c235.093 0 426.667-191.147 426.667-426.667 0-235.093-191.573-426.667-426.667-426.667-235.52 0-426.667 191.573-426.667 426.667 0 235.52 191.147 426.667 426.667 426.667m-125.44-342.613c-12.373 12.8-32.853 12.8-45.227.427-12.8-12.8-12.8-32.853 0-45.227L489.39 338.351c5.973-5.973 14.08-9.387 22.613-9.387s16.64 3.413 22.613 9.387l148.053 148.907c6.4 5.973 9.387 14.08 9.387 22.187 0 8.533-2.987 16.64-9.387 23.04-12.8 12.373-32.853 12.373-45.227-.427l-125.44-125.867z" data-tags="Arrow - Down Circle" glyph-name="Arrow---Down-Circle" unicode=""/><glyph d="M696.742 874.662c144.64 0 241.92-101.547 241.92-252.16V273.915c0-151.04-97.28-252.587-241.92-252.587h-369.92c-144.597 0-241.493 101.547-241.493 252.587v348.587c0 150.613 96.896 252.16 241.493 252.16zM511.996 654.076c-17.92 0-32-14.08-32-32V351.143L374.609 456.956c-5.973 5.973-14.507 9.387-22.613 9.387-8.064 0-16.213-3.413-22.613-9.387-12.373-12.373-12.373-32.853 0-45.227l160-160.853c11.947-11.947 33.28-11.947 45.227 0l160 160.853c12.373 12.373 12.373 32.853 0 45.227a32.714 32.714 0 0 1-45.653 0l-104.96-105.813v270.933c0 17.92-14.507 32-32 32z" data-tags="Arrow - Down Square" glyph-name="Arrow---Down-Square" unicode=""/><glyph d="M511.718 497.705c62.79 0 120.034-3.677 157.35-9.216.094-.086 1.025-.299 2.595-.622l10.693-2.141c13.652-2.774 34.16-7.281 43.345-12.039C751.832 460.142 768 433.658 768 405.313v-2.467c-.611-18.478-16.825-57.297-17.389-57.297-27.4-65.302-112.608-194.046-169.241-245.804l-1.938-1.914c-4.266-4.173-14.647-14.108-21.702-19.031-13.066-9.868-29.233-14.801-45.4-14.801-18.047 0-34.826 5.539-48.549 16.011-2.491 2.467-13.019 11.683-21.76 20.34-54.753 50.501-144.285 182.363-171.685 251.342-4.371 10.473-13.677 36.957-14.334 51.153 0 13.545 3.149 26.484 9.353 38.818 8.695 15.406 22.418 27.694 38.586 34.49 11.186 4.329 44.789 11.124 45.4 11.124 36.706 6.749 96.394 10.426 162.379 10.426zM512.019 832c35.766 0 64.764-28.718 64.764-64.139l-13.959-157.834c0-27.787-22.747-50.315-50.805-50.315-28.105 0-50.805 22.528-50.805 50.315l-13.959 157.834c0 35.421 28.998 64.139 64.764 64.139" data-tags="Arrow - Down" glyph-name="Arrow---Down" unicode=""/><glyph d="M314.42 496.256c2.411 2.475 11.514 13.056 19.993 21.76 49.712 54.741 179.395 144.341 247.271 171.691 10.308 4.395 36.37 13.696 50.294 14.293 13.342 0 26.061-3.072 38.198-9.301 15.13-8.704 27.267-22.4 33.917-38.571 4.281-11.221 10.932-44.8 10.932-45.397 6.65-36.736 10.308-96.427 10.308-162.389 0-62.848-3.658-120.107-9.103-157.397-.623-.597-7.274-42.325-14.548-56.619-13.342-26.112-39.404-42.325-67.294-42.325h-2.411c-18.164.64-56.362 16.853-56.362 17.451-64.218 27.392-190.909 112.597-241.826 169.216 0 0-14.34 14.549-20.575 23.637-9.726 13.056-14.548 29.227-14.548 45.397 0 18.048 5.445 34.859 15.753 48.555z" data-tags="Arrow - Left 2" glyph-name="Arrow---Left-2" unicode=""/><glyph d="M505.964 217.169c9.984 5.386 16.208 15.628 16.208 26.768v173.459H864.67c17.294 0 31.33 13.71 31.33 30.603s-14.036 30.603-31.33 30.603H522.172v173.459c0 11.18-6.224 21.422-16.208 26.768-9.984 5.427-22.182 5.06-31.831-.857L142.621 473.91C133.514 468.279 128 458.527 128 447.999s5.514-20.28 14.621-25.911l331.512-204.062a32.2 32.2 0 0 1 16.709-4.692c5.18 0 10.402 1.306 15.122 3.836z" data-tags="Arrow - Left 3" glyph-name="Arrow---Left-3" unicode=""/><glyph d="m512 874.667 11.937-.164c230.008-6.328 414.73-194.975 414.73-426.503C938.667 212.907 747.52 21.333 512 21.333 276.907 21.333 85.333 212.906 85.333 448c0 235.52 191.573 426.667 426.667 426.667m84.48-256c-12.8 12.8-32.853 12.8-45.227 0L402.346 470.614c-5.973-5.973-9.387-14.08-9.387-22.613s3.413-16.64 9.387-22.613l148.907-148.053c5.973-6.4 14.08-9.387 22.187-9.387 8.533 0 16.64 2.987 23.04 9.387 12.373 12.8 12.373 32.853-.427 45.227l-125.867 125.44 125.867 125.44c12.8 12.373 12.8 32.853.427 45.227z" data-tags="Arrow - Left Circle" glyph-name="Arrow---Left-Circle" unicode=""/><glyph d="M686.502 874.667c150.613 0 252.16-96.896 252.16-241.493v-369.92c0-144.64-101.547-241.92-252.16-241.92H337.915c-151.04 0-252.587 97.28-252.587 241.92v369.92c0 144.597 101.547 241.493 252.587 241.493zM520.956 630.613c-12.373 12.373-32.853 12.373-45.227 0l-160.853-160c-11.947-11.947-11.947-33.28 0-45.227l160.853-160c12.373-12.373 32.853-12.373 45.227 0a32.714 32.714 0 0 1 0 45.653l-105.813 104.96h270.933c17.92 0 32 14.507 32 32 0 17.92-14.08 32-32 32H415.143l105.813 105.387c5.973 5.973 9.387 14.507 9.387 22.613 0 8.064-3.413 16.213-9.387 22.613z" data-tags="Arrow - Left Square" glyph-name="Arrow---Left-Square" unicode=""/><glyph d="m561.64 463.39.065-15.108c0-62.79-3.677-120.034-9.216-157.35l-4.852-23.205c-2.7-12.29-6.249-26.284-9.949-33.428C524.143 208.168 497.659 192 469.314 192h-2.467c-18.478.611-57.297 16.825-57.297 17.389-62.463 26.209-182.971 105.308-238.627 161.699l-16.174 16.93c-4.235 4.588-8.994 10.019-11.948 14.252-9.868 13.066-14.801 29.233-14.801 45.4 0 18.047 5.539 34.826 16.011 48.549l16.617 17.933 3.723 3.827c50.501 54.753 182.363 144.285 251.342 171.685l10.414 3.991c12.532 4.492 30.091 9.85 40.738 10.343 13.545 0 26.484-3.149 38.818-9.353 15.406-8.695 27.694-22.418 34.49-38.586 4.329-11.186 11.124-44.789 11.124-45.4 6.23-33.882 9.842-87.347 10.361-147.271zM896 447.981c0-35.766-28.718-64.764-64.139-64.764l-157.834 13.959c-27.787 0-50.315 22.747-50.315 50.805 0 28.105 22.528 50.805 50.315 50.805l157.834 13.959c35.421 0 64.139-28.998 64.139-64.764" data-tags="Arrow - Left" glyph-name="Arrow---Left" unicode=""/><glyph d="M709.58 399.744c-2.411-2.475-11.514-13.056-19.993-21.76-49.712-54.741-179.395-144.341-247.271-171.691-10.308-4.395-36.37-13.696-50.294-14.293-13.342 0-26.061 3.072-38.198 9.301-15.13 8.704-27.267 22.4-33.917 38.571-4.281 11.221-10.932 44.8-10.932 45.397-6.65 36.736-10.308 96.427-10.308 162.389 0 62.848 3.658 120.107 9.103 157.397.623.597 7.274 42.325 14.548 56.619 13.342 26.112 39.404 42.325 67.294 42.325h2.411c18.164-.64 56.362-16.853 56.362-17.451 64.218-27.392 190.909-112.597 241.826-169.216 0 0 14.34-14.549 20.575-23.637 9.726-13.056 14.548-29.227 14.548-45.397 0-18.048-5.445-34.859-15.753-48.555z" data-tags="Arrow - Right 2" glyph-name="Arrow---Right-2" unicode=""/><glyph d="M518.036 678.831c-9.984-5.386-16.208-15.628-16.208-26.768V478.604H159.33c-17.294 0-31.33-13.71-31.33-30.603s14.036-30.603 31.33-30.603h342.498V243.939c0-11.18 6.224-21.422 16.208-26.768 9.984-5.427 22.182-5.06 31.831.857L881.379 422.09c9.107 5.631 14.621 15.383 14.621 25.911s-5.514 20.28-14.621 25.911L549.867 677.974a32.2 32.2 0 0 1-16.709 4.692c-5.18 0-10.402-1.306-15.122-3.836z" data-tags="Arrow - Right 3" glyph-name="Arrow---Right-3" unicode=""/><glyph d="M512.004 874.667c235.093 0 426.667-191.573 426.667-426.667 0-235.52-191.573-426.667-426.667-426.667l-11.937.164C270.059 27.825 85.337 216.472 85.337 448c0 235.093 191.147 426.667 426.667 426.667m-61.44-246.614c-8.533 0-16.64-2.987-23.04-9.387-12.373-12.8-12.373-32.853.427-45.227l125.867-125.44-125.867-125.44c-12.8-12.373-12.8-32.853-.427-45.227 12.8-12.8 32.853-12.8 45.227 0l148.907 148.053c5.973 5.973 9.387 14.08 9.387 22.613s-3.413 16.64-9.387 22.613L472.751 618.664c-5.973 6.4-14.08 9.387-22.187 9.387z" data-tags="Arrow - Right Circle" glyph-name="Arrow---Right-Circle" unicode=""/><glyph d="M686.076 874.667c151.04 0 252.587-97.28 252.587-241.92v-369.92c0-144.597-101.547-241.493-252.587-241.493H337.489c-150.613 0-252.16 96.896-252.16 241.493v369.92c0 144.64 101.547 241.92 252.16 241.92zM548.262 630.613c-12.373 12.373-32.853 12.373-45.227 0a32.714 32.714 0 0 1 0-45.653L608.848 480H337.915c-17.92 0-32-14.507-32-32 0-17.92 14.08-32 32-32h270.933L503.035 310.613c-5.973-5.973-9.387-14.507-9.387-22.613 0-8.064 3.413-16.213 9.387-22.613 12.373-12.373 32.853-12.373 45.227 0l160.853 160c11.947 11.947 11.947 33.28 0 45.227z" data-tags="Arrow - Right Square" glyph-name="Arrow---Right-Square" unicode=""/><glyph d="m462.36 432.61-.065 15.108c0 62.79 3.677 120.034 9.216 157.35l4.852 23.205c2.7 12.29 6.249 26.284 9.949 33.428C499.857 687.832 526.341 704 554.686 704h2.467c18.478-.611 57.297-16.825 57.297-17.389 62.463-26.209 182.971-105.308 238.627-161.699l16.174-16.93c4.235-4.588 8.994-10.019 11.948-14.252 9.868-13.066 14.801-29.233 14.801-45.4 0-18.047-5.539-34.826-16.011-48.549l-16.617-17.933-3.723-3.827c-50.501-54.753-182.363-144.285-251.342-171.685l-10.414-3.991c-12.532-4.492-30.091-9.85-40.738-10.343-13.545 0-26.484 3.149-38.818 9.353-15.406 8.695-27.694 22.418-34.49 38.586-4.329 11.186-11.124 44.789-11.124 45.4-6.23 33.882-9.842 87.347-10.361 147.271zM128 448.019c0 35.766 28.718 64.764 64.139 64.764l157.834-13.959c27.787 0 50.315-22.747 50.315-50.805 0-28.105-22.528-50.805-50.315-50.805l-157.834-13.959c-35.421 0-64.139 28.998-64.139 64.764" data-tags="Arrow - Right" glyph-name="Arrow---Right" unicode=""/><glyph d="M560.256 645.58c2.475-2.411 13.056-11.514 21.76-19.993 54.741-49.712 144.341-179.395 171.691-247.271 4.395-10.308 13.696-36.37 14.293-50.294 0-13.342-3.072-26.061-9.301-38.198-8.704-15.13-22.4-27.267-38.571-33.917-11.221-4.281-44.8-10.932-45.397-10.932-36.736-6.65-96.427-10.308-162.389-10.308-62.848 0-120.107 3.658-157.397 9.103-.597.623-42.325 7.274-56.619 14.548-26.112 13.342-42.325 39.404-42.325 67.294v2.411c.64 18.164 16.853 56.362 17.451 56.362 27.392 64.218 112.597 190.909 169.216 241.826 0 0 14.549 14.34 23.637 20.575 13.056 9.726 29.227 14.548 45.397 14.548 18.048 0 34.859-5.445 48.555-15.753z" data-tags="Arrow - Up 2" glyph-name="Arrow---Up-2" unicode=""/><glyph d="M281.169 454.036c5.386-9.984 15.628-16.208 26.768-16.208h173.459V95.33c0-17.294 13.71-31.33 30.603-31.33s30.603 14.036 30.603 31.33v342.498h173.459c11.18 0 21.422 6.224 26.768 16.208 5.427 9.984 5.06 22.182-.857 31.831L537.91 817.379C532.279 826.486 522.527 832 511.999 832s-20.28-5.514-25.911-14.621L282.026 485.867a32.2 32.2 0 0 1-4.692-16.709c0-5.18 1.306-10.402 3.836-15.122z" data-tags="Arrow - Up 3" glyph-name="Arrow---Up-3" unicode=""/><glyph d="M512 874.667c235.52 0 426.667-191.573 426.667-426.667l-.164-11.937C932.175 206.055 743.528 21.333 512 21.333 276.907 21.333 85.333 212.48 85.333 448c0 235.093 191.573 426.667 426.667 426.667m0-307.627a31.97 31.97 0 0 1-22.613-9.387L341.334 408.746c-6.4-5.973-9.387-14.08-9.387-22.187 0-8.533 2.987-16.64 9.387-23.04 12.8-12.373 32.853-12.373 45.227.427l125.44 125.867 125.44-125.867c12.373-12.8 32.853-12.8 45.227-.427 12.8 12.8 12.8 32.853 0 45.227L534.615 557.653a31.97 31.97 0 0 1-22.613 9.387z" data-tags="Arrow - Up Circle" glyph-name="Arrow---Up-Circle" unicode=""/><glyph d="M697.169 874.667c144.597 0 241.493-101.547 241.493-252.587V273.493c0-150.613-96.896-252.16-241.493-252.16h-369.92c-144.64 0-241.92 101.547-241.92 252.16V622.08c0 151.04 97.28 252.587 241.92 252.587zM534.609 645.12c-11.947 11.947-33.28 11.947-45.227 0l-160-160.853c-12.373-12.373-12.373-32.853 0-45.227a32.714 32.714 0 0 1 45.653 0l104.96 105.813V273.92c0-17.92 14.507-32 32-32 17.92 0 32 14.08 32 32v270.933L649.382 439.04c5.973-5.973 14.507-9.387 22.613-9.387 8.064 0 16.213 3.413 22.613 9.387 12.373 12.373 12.373 32.853 0 45.227z" data-tags="Arrow - Up Square" glyph-name="Arrow---Up-Square" unicode=""/><glyph d="m527.39 398.36-15.108-.065c-62.79 0-120.034 3.677-157.35 9.216l-23.205 4.852c-12.29 2.7-26.284 6.249-33.428 9.949C272.168 435.857 256 462.341 256 490.686v2.467c.611 18.478 16.825 57.297 17.389 57.297 26.209 62.463 105.308 182.971 161.699 238.627l16.93 16.174c4.588 4.235 10.019 8.994 14.252 11.948 13.066 9.868 29.233 14.801 45.4 14.801 18.047 0 34.826-5.539 48.549-16.011l17.933-16.617 3.827-3.723c54.753-50.501 144.285-182.363 171.685-251.342l3.991-10.414c4.492-12.532 9.85-30.091 10.343-40.738 0-13.545-3.149-26.484-9.353-38.818-8.695-15.406-22.418-27.694-38.586-34.49-11.186-4.329-44.789-11.124-45.4-11.124-33.882-6.23-87.347-9.842-147.271-10.361zM511.981 64c-35.766 0-64.764 28.718-64.764 64.139l13.959 157.834c0 27.787 22.747 50.315 50.805 50.315 28.105 0 50.805-22.528 50.805-50.315l13.959-157.834c0-35.421-28.998-64.139-64.764-64.139" data-tags="Arrow - Up" glyph-name="Arrow---Up" unicode=""/><glyph d="M512.416 874.667c103.206 0 186.853-85.333 188.101-190.72h8.739c114.858 0 208.077-96 208.077-213.76v-235.52c0-117.76-93.218-213.333-208.077-213.333H314.743c-114.858 0-208.077 95.573-208.077 213.333v235.52c0 117.76 93.218 213.76 208.077 213.76h8.739c.832 51.2 20.392 98.987 55.765 134.827 35.789 36.267 81.566 54.613 133.169 55.893m157.722-241.494c-17.062 0-31.211-14.507-31.211-32V551.68c0-17.493 14.149-32 31.211-32 17.478 0 31.211 14.507 31.211 32v49.493c0 17.493-13.733 32-31.211 32m-320.022 0c-17.062 0-31.211-14.507-31.211-32V551.68c0-17.493 14.149-32 31.211-32 17.478 0 31.211 14.507 31.211 32v49.493c0 17.493-13.733 32-31.211 32m162.3 177.494c-32.044 0-65.336-13.227-89.473-37.547-23.305-23.893-36.205-55.467-37.038-89.173h252.189c-1.248 69.973-57.013 126.72-125.678 126.72" data-tags="Bag 2" glyph-name="Bag-2" unicode=""/><glyph d="M512.211 874.667c114.344 0 208.351-89.852 213.122-203.704h-1.115a21.4 21.4 0 0 0-1.858-9.629h6.662c51.926 0 106.299-35.99 128.102-122.872l2.369-10.252 32.806-264.306C915.908 95.328 823.678 24.435 697.865 21.433l-8.436-.1H335.725c-127.861 0-226.389 46.593-204.725 231.102l1.477 11.47 33.183 264.306c16.363 93.563 71.295 130.467 124.223 132.984l5.871.139h3.335a27.7 27.7 0 0 0 0 9.629c4.772 113.852 98.778 203.704 213.122 203.704M388.139 519.284c-20.826 0-37.708-17.376-37.708-38.811s16.883-38.811 37.708-38.811c20.826 0 37.708 17.376 37.708 38.811l-.294 4.868c-2.327 19.137-18.191 33.943-37.415 33.943zm246.989 0c-20.826 0-37.708-17.376-37.708-38.811s16.883-38.811 37.708-38.811c20.826 0 37.708 17.376 37.708 38.811s-16.883 38.811-37.708 38.811M510.539 819.098c-82.095 0-148.647-66.323-148.647-148.136a27.7 27.7 0 0 0 0-9.629h299.152a27.7 27.7 0 0 0-1.858 9.629c0 81.813-66.551 148.136-148.647 148.136" data-tags="Bag" glyph-name="Bag" unicode=""/><glyph d="M642.982 874.662c115.627 0 209.067-45.653 210.347-161.707V65.275c0-7.253-1.707-14.507-5.12-20.907-5.547-10.24-14.933-17.92-26.453-21.333-11.093-3.413-23.467-1.707-33.707 4.267l-276.48 138.24-276.907-138.24c-6.357-3.371-13.653-5.547-20.907-5.547-23.893 0-43.093 19.627-43.093 43.52v647.68c0 116.053 93.867 161.707 209.067 161.707zm29.014-257.706h-321.28c-18.347 0-33.28-14.933-33.28-33.707 0-18.731 14.933-33.707 33.28-33.707h321.28c18.347 0 33.28 14.976 33.28 33.707 0 18.773-14.933 33.707-33.28 33.707" data-tags="Bookmark" glyph-name="Bookmark" unicode=""/><glyph d="M316.856 153.265c35.386 0 64.376-29.608 64.376-66.183 0-36.14-28.991-65.748-64.376-65.748-35.812 0-64.803 29.608-64.803 65.748 0 36.575 28.991 66.183 64.803 66.183m479.626 0c35.386 0 64.376-29.608 64.376-66.183 0-36.14-28.991-65.748-64.376-65.748-35.812 0-64.803 29.608-64.803 65.748 0 36.575 28.991 66.183 64.803 66.183M118.538 874.662l4.345-.368 101.681-15.631c14.495-2.656 25.154-14.804 26.433-29.608l8.1-97.533c1.279-13.977 12.364-24.427 26.006-24.427h575.765c26.006 0 43.06-9.144 60.113-29.173s20.038-48.767 16.201-74.848L896.68 317.44c-7.674-54.906-53.718-95.356-107.863-95.356H323.686c-56.702 0-103.599 44.369-108.289 101.844l-39.223 474.648-64.376 11.321c-17.053 3.048-28.991 20.029-26.006 37.446 2.984 17.809 19.611 29.608 37.091 26.952zm602.065-328.629H602.508c-17.906 0-31.975-14.369-31.975-32.656 0-17.852 14.069-32.656 31.975-32.656h118.095c17.906 0 31.975 14.804 31.975 32.656 0 18.288-14.069 32.656-31.975 32.656" data-tags="Buy" glyph-name="Buy" unicode=""/><glyph d="M667.719 874.667c18.114.043 32.437-14.03 32.479-32.794l.042-31.984c117.532-9.211 195.17-89.299 195.296-212.118l.464-359.5c.168-133.906-83.957-216.297-218.803-216.51l-329.383-.427c-134.003-.17-219.182 84.182-219.35 218.473L128 595.085c-.168 123.629 74.732 203.503 192.263 214.293l-.042 31.984c-.042 18.764 13.859 32.88 32.395 32.88 18.535.043 32.437-14.03 32.479-32.794l.042-29.852 250.228.341-.042 29.852c-.042 18.764 13.859 32.837 32.395 32.88zm17.187-605.521h-.421c-19.378-.469-34.922-16.717-34.501-36.334.042-19.617 15.671-35.779 35.049-36.206 19.757.043 35.765 16.291 35.723 36.334 0 20.043-16.05 36.206-35.849 36.206zm-347.118-.043c-19.378-.853-34.543-17.101-34.501-36.718.885-19.617 16.893-34.969 36.271-34.074 18.999.853 34.122 17.101 33.237 36.718-.421 19.19-16.05 34.116-35.007 34.074m173.559.213c-19.378-.896-34.501-17.101-34.501-36.718.885-19.617 16.893-34.927 36.27-34.074 18.957.896 34.122 17.101 33.237 36.76-.421 19.148-16.05 34.074-35.007 34.031zm-173.77 153.31c-19.378-.853-34.501-17.101-34.459-36.718.843-19.617 16.893-34.969 36.271-34.074 18.957.853 34.08 17.101 33.195 36.718-.421 19.19-16.008 34.116-35.007 34.074m173.602 1.493c-19.378-.853-34.543-17.101-34.501-36.718.843-19.617 16.893-34.927 36.271-34.074 18.957.896 34.08 17.101 33.237 36.718-.463 19.19-16.05 34.116-35.007 34.074m173.559-.213c-19.378-.427-34.543-16.205-34.501-35.822v-.469c.421-19.617 16.429-34.5 35.849-34.074 18.957.469 34.08 16.717 33.659 36.334-.885 18.764-16.092 34.074-35.007 34.031M635.45 746.261l-250.228-.341.042-34.5c0-18.38-13.859-32.88-32.395-32.88-18.535-.043-32.479 14.414-32.479 32.794l-.042 32.837c-82.146-8.231-127.6-56.505-127.474-149.003l.042-13.263 637.787.853v14.926c-1.811 91.687-47.813 139.791-130.38 146.956l.042-32.837c0-18.337-14.281-32.88-32.395-32.88-18.535-.043-32.479 14.457-32.479 32.794l-.042 34.543z" data-tags="Calendar" glyph-name="Calendar" unicode=""/><glyph d="M253.185 853.072c16.668-1.427 32.906-9.987 48.756-25.55 24.033-23.561 91.998-109.723 97.253-135.013 5.814-28.101-6.934-50.452-18.219-70.079-11.629-20.233-42.51-58.579-34.456-80.93 45.698-112.23 151.263-210.15 263.504-256.149 21.923-7.955 60.169 22.956 80.283 34.629 19.64 11.327 41.821 24.296 69.86 18.33 25.196-5.318 111.122-75.051 134.595-99.217 15.462-15.823 23.99-32.165 25.368-48.506 2.283-64.113-84.762-137.305-100.655-146.427-21.061-15.174-45.568-22.826-73.09-22.826-28.125 0-59.437 7.998-93.678 23.95-185.547 77.472-468.993 355.41-543.936 539.621-31.054 68.523-31.269 125.07-.517 167.567 12.275 19.93 82.307 103.238 144.932 100.601zm621.135 10.895c14.256 14.267 39.022 14.267 53.278 0 7.15-7.176 11.069-16.688 11.069-26.761s-3.919-19.584-11.069-26.761L825.047 707.51l102.551-102.935c7.15-7.176 11.069-16.688 11.069-26.761s-3.919-19.584-11.069-26.761c-7.107-7.133-16.539-11.067-26.617-11.067s-19.511 3.934-26.661 11.067L771.769 654.031 669.175 551.053c-14.256-14.267-39.022-14.267-53.278 0-7.107 7.176-11.026 16.688-11.026 26.761s3.919 19.584 11.026 26.761L718.448 707.51 615.897 810.445c-7.107 7.176-11.026 16.688-11.026 26.761s3.919 19.584 11.026 26.761c14.256 14.267 39.022 14.267 53.278 0l102.594-102.978z" data-tags="Call Missed" glyph-name="Call-Missed" unicode=""/><glyph d="M886.186 859.127c9.727 0 19.031-4.38 25.797-11.319 13.956-14.744 13.956-37.729 0-52.473v-.434L519.935 393.287c35.101-27.711 73.162-50.695 112.069-66.784 21.568-8.196 58.784 23.027 78.66 34.736 19.454 11.275 41.022 24.285 68.51 18.214 24.951-5.204 109.109-75.023 132.369-99.309 15.225-16.045 23.26-32.525 24.951-48.57 2.115-64.616-83.312-137.904-98.959-147.011-20.722-15.178-44.828-22.984-71.894-22.984-27.489 0-58.361 7.806-91.77 23.851-79.083 33.826-176.774 105.813-267.698 191.245L146.95 10.84C139.761 3.901 130.88-.002 121.576-.002S103.391 3.901 95.779 10.84c-11.841 12.576-13.533 31.224-5.498 45.101l1.269 1.735c.846 1.344 1.692 2.602 2.96 3.903l766.301 786.229c6.344 6.939 15.647 11.319 25.374 11.319zm-604.768 36.814c16.493-1.301 32.564-9.974 47.788-25.586 23.683-23.851 90.501-110.15 95.576-135.302 5.921-28.622-6.766-50.738-17.762-70.687-11.418-19.948-41.867-58.544-33.832-81.095 11.841-29.055 27.489-57.243 46.096-84.13L304.677 381.619c-74.431 84.564-135.752 172.164-164.932 245.452-30.449 68.519-30.872 125.328-.423 167.827 11.841 19.948 80.775 103.645 142.095 101.043z" data-tags="Call Silent" glyph-name="Call-Silent" unicode=""/><glyph d="M775.109 346.464c-28.659 6.165-51.332-7.141-71.406-18.761-20.559-11.975-59.652-43.688-82.06-35.571-114.726 47.236-222.627 147.652-269.336 262.838-8.232 22.886 23.333 62.228 35.219 83.029 11.534 20.136 24.565 43.023 18.622 71.897-5.371 25.947-74.84 114.343-99.405 138.515-16.201 15.967-32.798 24.749-49.835 26.168-64.054 2.75-135.593-82.719-148.139-103.166-31.433-43.599-31.257-101.613.528-171.958 76.601-188.945 366.32-474.092 555.974-553.573 34.999-16.366 67.004-24.572 95.751-24.572 28.131 0 53.181 7.851 74.708 23.419 16.245 9.359 105.216 84.449 102.883 150.225-1.409 16.766-10.169 33.531-25.93 49.764-23.993 24.793-111.82 96.335-137.574 101.746" data-tags="Call" glyph-name="Call" unicode=""/><glyph d="M250.962 841.634c16.444-1.407 32.421-9.849 48.101-25.199 23.71-23.237 90.762-108.214 95.946-133.157 5.736-27.714-6.841-49.758-18.017-69.115-11.43-19.954-41.897-57.774-33.951-79.817 45.084-110.687 149.231-207.26 259.965-252.627 21.586-7.845 59.361 22.64 79.205 34.153 19.376 11.171 41.26 23.962 68.922 18.078 24.858-5.244 109.586-74.019 132.787-97.853 15.212-15.605 23.668-31.722 24.985-47.839 2.295-63.231-83.624-135.416-99.261-144.413-20.778-14.966-44.956-22.513-72.109-22.513-27.747 0-58.681 7.888-92.42 23.621C462.06 121.359 182.422 395.475 108.486 577.11c-30.679 67.623-30.892 123.393-.51 165.305 12.11 19.656 81.159 101.818 142.985 99.217zM610.52 726.336l4.652-.574c88.935-17.353 157.56-86.213 174.939-175.368 3.867-19.869-9.136-39.184-28.894-43.149a40 40 0 0 0-7.054-.64c-17.422 0-32.549 12.493-35.863 29.676-11.643 59.735-57.576 105.783-117.065 117.381-19.759 3.88-32.761 23.237-28.894 43.064s22.521 32.788 42.832 29.036zm-2.757 148.331 4.753-.338c172.559-19.229 306.536-153.58 325.912-326.688 1.105-9.764-1.657-19.315-7.734-26.989-6.119-7.675-14.787-12.493-24.518-13.559a34 34 0 0 0-4.164-.256c-18.611 0-34.206 14.028-36.288 32.618-15.552 138.742-123.056 246.487-261.367 261.921-20.056 2.26-34.546 20.423-32.294 40.506 1.062 9.935 5.949 18.803 13.767 24.943 7.606 6.055 17.167 8.869 26.685 7.504z" data-tags="Calling" glyph-name="Calling" unicode=""/><glyph d="M612.267 832c41.387-.426 75.093-21.736 94.72-60.093 5.067-10.122 12.133-24.906 19.533-40.501l13.32-28.116 4.267-9.376c1.707-2.983 4.693-5.114 8.533-5.114 102.4 0 186.027-83.534 186.027-185.82V249.821c0-102.286-83.627-185.82-186.027-185.82H271.36c-102.827 0-186.027 83.534-186.027 185.82V502.98c0 102.286 83.2 185.82 186.027 185.82 3.413 0 6.827 1.705 8.107 5.114l2.56 5.114c11.947 25.145 26.453 55.831 34.987 72.879 19.627 38.357 52.907 59.667 94.293 60.093zM512 558.81c-44.8 0-87.04-17.474-119.04-49.438-31.573-31.964-49.067-73.731-48.64-118.055 0-44.75 17.493-86.517 49.067-118.482 32-31.538 73.813-49.012 118.613-49.012 46.08 0 87.893 18.752 118.187 49.012s49.067 72.027 49.493 118.482c0 44.324-17.493 86.517-49.067 118.482C599.04 541.337 556.8 558.811 512 558.811zm0-63.929c27.733 0 53.76-10.655 73.387-30.26s30.293-45.603 30.293-73.305c-.427-57.11-46.507-103.565-103.68-103.565-27.733 0-53.76 10.655-73.387 30.26s-30.293 45.603-30.293 73.305v.426c-.427 26.85 10.24 52.848 29.867 72.453 20.053 20.031 46.08 30.686 73.813 30.686m239.36 74.158c-21.333 0-38.4-17.474-38.4-38.784s17.067-38.357 38.4-38.357 38.827 17.048 38.827 38.357-17.493 38.784-38.827 38.784" data-tags="Camera" glyph-name="Camera" unicode=""/><glyph d="M337.916 385.293c60.16 0 108.373-48.683 108.373-109.269V130.573c0-60.16-48.213-109.227-108.373-109.227H193.703c-59.733 0-108.373 49.067-108.373 109.227v145.451c0 60.587 48.64 109.269 108.373 109.269zm492.377 0c59.733 0 108.373-48.683 108.373-109.269V130.573c0-60.16-48.64-109.227-108.373-109.227H686.08c-60.16 0-108.373 49.067-108.373 109.227v145.451c0 60.587 48.213 109.269 108.373 109.269zM337.916 874.667c60.16 0 108.373-49.067 108.373-109.269V619.947c0-60.587-48.213-109.227-108.373-109.227H193.703c-59.733 0-108.373 48.64-108.373 109.227v145.451c0 60.203 48.64 109.269 108.373 109.269zm492.377 0c59.733 0 108.373-49.067 108.373-109.269V619.947c0-60.587-48.64-109.227-108.373-109.227H686.08c-60.16 0-108.373 48.64-108.373 109.227v145.451c0 60.203 48.213 109.269 108.373 109.269z" data-tags="Category" glyph-name="Category" unicode=""/><glyph d="M711.228 874.65c145.109 0 227.029-82.304 227.456-227.413V248.73c0-145.067-82.347-227.413-227.456-227.413H312.764c-145.109 0-227.413 82.347-227.413 227.413v398.507c0 145.109 82.304 227.413 227.413 227.413zM533.35 698.436c-11.989 7.253-26.496 7.253-37.973 0-11.563-7.211-17.92-20.48-16.683-33.707V229.956c2.176-18.347 17.493-32 35.413-32 18.389 0 33.707 13.653 35.413 32v434.773c1.707 13.227-4.651 26.496-16.171 33.707zM334.097 558.49c-11.52 7.253-26.069 7.253-37.547 0-11.563-7.253-17.92-20.437-16.64-33.707V229.956c1.664-18.347 17.024-32 35.371-32 18.389 0 33.707 13.653 35.413 32v294.827c1.323 13.269-5.12 26.453-16.597 33.707m395.051-154.88c-11.477 7.253-25.984 7.253-37.931 0-11.563-7.253-17.92-20.011-16.213-33.707V229.956c1.707-18.347 17.024-32 35.413-32 17.92 0 33.237 13.653 35.413 32v139.947c1.237 13.696-5.12 26.453-16.683 33.707z" data-tags="Chart" glyph-name="Chart" unicode=""/><glyph d="M512.853 874.667c242.347 0 425.813-198.698 425.813-426.026 0-263.649-215.04-427.308-426.667-427.308-69.973 0-147.627 18.802-209.92 55.55-21.76 13.247-40.107 23.075-63.573 15.383l-86.187-25.638c-21.76-6.837-41.387 10.255-34.987 33.33l28.587 95.717c4.693 13.247 3.84 27.348-2.987 38.458-36.693 67.515-57.6 141.439-57.6 213.227 0 224.764 179.627 427.308 427.52 427.308zm194.987-373.04c-30.293 0-54.613-24.357-54.613-54.695 0-29.912 24.32-54.695 54.613-54.695s54.613 24.784 54.613 54.695c0 30.339-24.32 54.695-54.613 54.695m-196.693 0c-29.867.427-54.613-24.357-54.613-54.268 0-30.339 24.32-54.695 54.613-55.123 30.293 0 54.613 24.784 54.613 54.695 0 30.339-24.32 54.695-54.613 54.695zm-196.694 0c-30.293 0-54.613-24.357-54.613-54.695 0-29.912 24.747-54.695 54.613-54.695 30.293.427 54.613 24.784 54.613 54.695 0 30.339-24.32 54.695-54.613 54.695" data-tags="Chat" glyph-name="Chat" unicode=""/><glyph d="M697.165 874.701c144.64 0 241.493-101.547 241.493-252.587V273.485c0-150.613-96.853-252.117-241.493-252.117h-369.92c-144.64 0-241.92 101.504-241.92 252.117v348.629c0 151.04 97.28 252.587 241.92 252.587zm-56.747-297.43c-14.507 14.549-37.973 14.549-52.907 0l-75.52-75.904-75.947 75.904c-14.933 14.549-38.4 14.549-52.907 0-14.507-14.507-14.507-38.4 0-52.864l75.947-75.989-75.947-75.52c-14.507-14.933-14.507-38.4 0-52.864 7.253-7.253 17.067-11.136 26.453-11.136 9.813 0 19.2 3.883 26.453 11.136l75.947 75.477 75.947-75.477c7.253-7.723 16.64-11.136 26.027-11.136 9.813 0 19.2 3.883 26.453 11.136 14.507 14.464 14.507 37.931 0 52.437l-75.947 75.947 75.947 75.989c14.507 14.464 14.507 38.357 0 52.864z" data-tags="Close Square" glyph-name="Close-Square" unicode=""/><glyph d="M453.457 816.935c58.017 32.174 131.818 11.035 164.239-46.464L927.83 232.226c6.826-16.066 9.812-29.13 10.665-42.701 1.706-31.709-9.385-62.53-31.141-86.248C885.598 79.643 856.163 65.692 824.168 64H199.633c-13.224.803-26.449 3.805-38.82 8.456C98.957 97.4 69.095 167.582 94.264 228.421l312.267 542.431c10.665 19.068 26.875 35.514 46.925 46.083zm58.444-508.566c-20.477 0-37.54-16.911-37.54-37.247 0-20.251 17.064-37.205 37.54-37.205s37.114 16.954 37.114 37.67c0 20.251-16.637 36.782-37.114 36.782m0 263.774c-20.477 0-37.54-16.446-37.54-36.782V415.756c0-20.294 17.064-37.247 37.54-37.247s37.114 16.954 37.114 37.247v119.605c0 20.336-16.637 36.782-37.114 36.782" data-tags="Danger" glyph-name="Danger" unicode=""/><glyph d="M808.067 588.922c8.507 0 16.225-3.712 22.325-9.984 5.685-6.699 8.548-15.019 7.718-23.808 0-2.901-22.74-290.472-35.728-411.516-8.133-74.282-56.019-119.38-127.848-120.617-55.231-1.237-109.216-1.664-162.372-1.664-56.434 0-111.623.427-165.194 1.664C277.546 24.661 229.619 70.57 221.9 143.614c-13.362 121.471-35.686 408.615-36.101 411.516-.415 8.789 2.407 17.109 8.133 23.808 5.643 6.272 13.777 9.984 22.325 9.984zM600.095 874.667c37.719 0 71.414-26.325 81.165-63.871l6.971-31.146c5.643-25.386 27.636-43.349 52.948-43.349h124.404c16.598 0 30.416-13.781 30.416-31.317v-16.213c0-17.109-13.818-31.317-30.416-31.317H158.457c-16.64 0-30.458 14.208-30.458 31.317v16.213c0 17.536 13.818 31.317 30.458 31.317h124.404c25.271 0 47.263 17.962 52.948 43.306l6.515 29.098c10.125 39.637 43.446 65.962 81.58 65.962z" data-tags="Delete" glyph-name="Delete" unicode=""/><glyph d="M420.917 836.864c49.938 50.304 131.461 50.304 181.826.384l31.158-31.104c11.951-11.947 28.17-18.816 45.243-18.816h43.963c70.852 0 128.473-57.557 128.473-128.384v-43.989c0-17.024 6.829-33.237 18.78-45.184l30.731-30.72c24.329-23.893 37.56-56.32 37.56-90.453.427-34.133-12.805-66.603-36.707-90.88l-31.585-31.573c-11.951-11.947-18.78-28.16-18.78-45.269v-43.904c0-70.827-57.621-128.469-128.473-128.469h-43.963A63.93 63.93 0 0 1 633.9 89.772l-30.731-30.72c-25.182-25.216-58.048-37.547-90.913-37.547s-65.73 12.331-90.913 37.077l-31.158 31.189a63.93 63.93 0 0 1-45.243 18.731h-43.963c-70.852 0-128.473 57.643-128.473 128.469v43.904c0 17.109-6.829 33.323-18.78 45.696l-30.731 30.293c-49.938 49.877-50.365 131.413-.427 181.717l31.158 31.189c11.951 11.947 18.78 28.16 18.78 45.653v43.52c0 70.827 57.621 128.384 128.473 128.384h43.963c17.073 0 33.292 6.869 45.243 18.816zM621.95 375.637c-20.914 0-37.56-16.683-37.56-37.12 0-20.907 16.646-37.547 37.56-37.547 20.487 0 37.133 16.64 37.133 37.547 0 20.437-16.646 37.12-37.133 37.12m26.036 208.64c-14.512 14.464-37.987 14.464-52.499 0L376.101 364.97c-14.512-14.507-14.512-38.4 0-52.907 6.829-7.253 16.219-11.093 26.036-11.093 10.244 0 19.634 3.84 26.463 11.093l219.386 219.264c14.512 14.507 14.512 38.443 0 52.949zm-245.422 10.667c-20.487 0-37.56-16.64-37.56-37.12 0-20.949 17.073-37.547 37.56-37.547s37.133 16.597 37.133 37.547c0 20.48-16.646 37.12-37.133 37.12" data-tags="Discount" glyph-name="Discount" unicode=""/><glyph d="M511.996 874.662c235.52 0 426.667-191.147 426.667-426.667 0-235.947-191.147-426.667-426.667-426.667-235.947 0-426.667 190.72-426.667 426.667 0 235.52 190.72 426.667 426.667 426.667m164.266-286.293c4.693 14.933-8.96 29.013-23.893 24.32l-218.453-68.267c-8.96-2.987-16.213-9.813-18.773-18.773l-68.267-218.88c-4.693-14.507 9.387-28.587 23.893-23.893l217.6 68.267c8.96 2.56 16.213 9.813 18.773 18.773z" data-tags="Discovery" glyph-name="Discovery" unicode=""/><glyph d="M690.816 874.667C822.613 874.667 896 798.72 896 668.587V227.84c0-132.267-73.387-206.507-205.184-206.507H333.227C203.52 21.333 128 95.573 128 227.84v440.747c0 130.133 75.52 206.08 205.227 206.08zm-346.069-586.24c-12.8 1.28-25.173-4.693-32-15.787-6.827-10.667-6.827-24.747 0-35.84 6.827-10.667 19.2-17.067 32-15.36h334.507c17.024 1.707 29.867 16.256 29.867 33.28 0 17.493-12.843 32-29.867 33.707zm334.506 194.602H344.746c-18.389 0-33.28-14.976-33.28-33.323s14.891-33.28 33.28-33.28h334.507c18.347 0 33.28 14.933 33.28 33.28s-14.933 33.323-33.28 33.323M472.277 676.267H344.746v-.427c-18.389 0-33.28-14.933-33.28-33.28s14.891-33.28 33.28-33.28h127.531c18.389 0 33.323 14.933 33.323 33.749 0 18.304-14.933 33.237-33.323 33.237z" data-tags="Document" glyph-name="Document" unicode=""/><glyph d="M479.151 648.938v171.051c0 18.188 14.507 33.344 32.853 33.344 16.427 0 30.344-12.736 32.549-28.867l.304-4.477V648.938l203.942-.013c101.547 0 184.975-83.155 189.659-186.862l.207-9.202v-215.01c0-104.433-80.527-190.157-180.564-194.97l-8.876-.213H274.772c-101.547 0-184.572 82.74-189.234 186.827l-.206 9.238v214.57c0 104.433 80.124 190.573 180.138 195.41l8.875.214h204.8V375.758l-68.267 70.495c-12.8 13.218-33.707 13.218-46.507 0-6.4-6.609-9.387-15.421-9.387-24.233 0-6.697 1.911-13.676 5.953-19.584l3.434-4.209 124.16-128.654c5.973-6.609 14.507-10.134 23.467-10.134 7.111 0 14.222 2.448 19.852 7.088l3.188 3.045 124.16 128.654c12.8 13.218 12.8 34.807 0 48.025-11.636 12.016-29.972 13.109-42.827 3.277l-3.68-3.277-67.84-70.495v273.169l-65.702.013z" data-tags="Download" glyph-name="Download" unicode=""/><glyph d="M711.052 874.226c61.377 3.836 121.902-17.475 167.508-59.245 41.77-45.606 63.082-106.13 59.672-167.933V248.953c3.836-61.803-17.902-122.327-59.246-167.933-45.607-41.77-106.557-63.081-167.934-59.245H312.954C251.151 17.939 190.626 39.25 145.02 81.02c-41.77 45.606-63.082 106.13-59.246 167.933v398.095c-3.836 61.803 17.475 122.327 59.246 167.933 45.607 41.77 106.131 63.081 167.934 59.245zM699.97 679.441c-26.426 26.426-69.049 26.426-95.475 0l-28.557-28.983c-4.262-4.262-4.262-11.508 0-15.77l2.326-2.312 10.484-10.427c6.065-6.034 13.634-13.569 21.235-21.146l25.774-25.762c5.378-5.402 8.946-9.023 9.23-9.402 4.689-5.115 7.672-11.934 7.672-19.606 0-15.344-12.361-28.131-28.131-28.131-7.246 0-14.066 2.984-18.754 7.672l-71.18 70.753c-3.41 3.41-9.377 3.41-12.787 0l-203.311-203.31c-14.066-14.065-22.164-32.819-22.59-52.852l-2.557-101.015c0-5.541 1.705-10.656 5.541-14.492s8.951-5.967 14.492-5.967h100.164c20.459 0 40.066 8.098 54.984 22.59l286.852 287.702c26 26.426 26 69.049 0 95.048z" data-tags="Edit Square" glyph-name="Edit-Square" unicode=""/><glyph d="M852.897 151.328c23.77 0 43.103-19.585 43.103-43.664C896 83.539 876.667 64 852.897 64h-243.63c-23.77 0-43.103 19.539-43.103 43.664 0 24.079 19.333 43.664 43.103 43.664zM683.941 802.173l62.934-49.993c25.807-20.181 43.012-46.783 48.898-74.761 6.791-30.776-.453-61.001-20.827-87.144L400.06 105.477c-17.205-22.015-42.559-34.399-69.725-34.858l-149.411-1.835c-8.15 0-14.941 5.504-16.752 13.301l-33.957 147.228c-5.886 27.061 0 55.039 17.205 76.595l265.77 343.991c4.528 5.504 12.677 6.375 18.11 2.293l111.832-88.979c7.244-5.963 17.205-9.173 27.618-7.797 22.185 2.752 37.126 22.933 34.863 44.49-1.358 11.008-6.791 20.181-14.036 27.061-2.264 1.835-108.663 87.144-108.663 87.144-6.791 5.504-8.15 15.594-2.717 22.428l42.107 54.626c38.937 49.993 106.851 54.58 161.636 11.008z" data-tags="Edit" glyph-name="Edit" unicode=""/><glyph d="m395.951 284.837 207.128-.634c12.915-.045 23.371-10.861 23.371-24.119V143.56c0-13.304-7.556-25.341-19.329-30.907L419.102 24.366a32.5 32.5 0 0 0-13.706-3.032c-6.194 0-12.388 1.81-17.792 5.385-9.445 6.245-15.156 17.015-15.156 28.554v205.445c0 13.349 10.543 24.165 23.502 24.12zm451.913 589.83c50.168 0 90.803-41.858 90.803-93.536v-65.344c0-25.07-9.796-49.144-27.192-66.702L633.928 368.341c-4.788-4.887-11.29-7.602-18.011-7.558l-232.388.725c-7.073 0-13.794 3.032-18.626 8.326L109.847 650.352c-15.771 17.332-24.513 40.229-24.513 63.987v66.747c0 51.678 40.635 93.581 90.803 93.581z" data-tags="Filter 2" glyph-name="Filter-2" unicode=""/><glyph d="M791.942 361.832c81.066 0 146.725-64.554 146.725-144.198 0-79.598-65.659-144.152-146.725-144.152-81.019 0-146.725 64.554-146.725 144.152 0 79.645 65.706 144.198 146.725 144.198M430.22 279.127c35.508 0 64.331-28.318 64.331-63.203 0-34.839-28.824-63.203-64.331-63.203H149.665c-35.508 0-64.331 28.365-64.331 63.203 0 34.885 28.824 63.203 64.331 63.203zM232.058 832c81.066 0 146.725-64.554 146.725-144.152 0-79.645-65.659-144.198-146.725-144.198-81.019 0-146.725 64.554-146.725 144.198C85.333 767.446 151.039 832 232.058 832m642.325-80.995c35.461 0 64.284-28.318 64.284-63.157 0-34.885-28.824-63.203-64.284-63.203H593.828c-35.508 0-64.331 28.318-64.331 63.203 0 34.839 28.824 63.157 64.331 63.157z" data-tags="Filter" glyph-name="Filter" unicode=""/><glyph d="M386.129 874.665c39.723.419 76.8-17.927 101.12-49.074l37.547-49.92c11.947-14.933 29.867-23.893 49.067-23.893H704.85c157.44 0 234.24-84.053 233.815-256.427V287.564c0-164.693-101.548-266.24-266.668-266.24H351.57c-164.267 0-266.24 101.547-266.24 266.667v320.427c0 176.64 78.507 266.247 233.387 266.247zm323.413-503.047H314.449c-17.92 0-32-14.08-32-32 0-17.493 14.08-32 32-32h395.093c17.493 0 31.573 14.507 31.573 32 0 17.92-14.08 32-31.573 32" data-tags="Folder" glyph-name="Folder" unicode=""/><glyph d="M356.658 874.667c17.586 0 31.403-13.976 31.403-30.829 0-12.331 10.468-22.197 23.029-22.197h41.452c63.225-.411 114.727-50.97 115.146-112.627v-7.81c39.778 0 79.555-.822 119.751-1.233 145.293 0 251.227-103.584 251.227-246.628V269.605c0-143.044-105.934-246.628-251.227-246.628-58.201-1.233-116.402-1.644-175.021-1.644s-117.658.411-175.859 1.644c-145.293 0-251.227 103.584-251.227 246.628v183.738c0 143.044 105.934 246.628 251.645 246.628 54.851.822 110.958 1.644 167.903 1.644v6.988c0 28.362-23.867 51.381-52.339 51.381h-41.452c-47.314 0-85.836 37.816-85.836 83.854 0 16.853 14.236 30.829 31.403 30.829zm30.985-408.17c-17.586 0-31.403-13.976-31.403-30.829v-43.16h-44.383c-17.167 0-31.403-13.976-31.403-30.829 0-17.264 14.236-30.829 31.403-30.829h44.383v-43.571c0-16.853 13.817-30.829 31.403-30.829 17.167 0 31.403 13.976 31.403 30.829v43.571h43.965c17.167 0 31.403 13.565 31.403 30.829 0 16.853-14.236 30.829-31.403 30.829h-43.965v43.16c0 16.853-14.236 30.829-31.403 30.829M716.75 320.575h-4.187c-17.628 0-31.403-13.976-31.403-30.829 0-17.264 13.776-30.829 31.403-30.829h4.187c17.167 0 31.403 13.565 31.403 30.829 0 16.853-14.236 30.829-31.403 30.829m-71.6 141.401h-4.187c-17.586 0-31.403-13.976-31.403-30.829 0-17.264 13.817-30.829 31.403-30.829h4.187c17.167 0 31.403 13.565 31.403 30.829 0 16.853-14.236 30.829-31.403 30.829" data-tags="Game" glyph-name="Game" unicode=""/><glyph d="M382.126 748.395c20.912 3.914 41.879-6.527 51.003-25.399a47.8 47.8 0 0 0 5.409-10.994c5.796-89.465 11.978-177.414 17.774-265.363a80.1 80.1 0 0 1 4.25-26.915c6.934-17.067 24.189-27.896 42.889-26.915l283.996 18.196 1.932-.758 5.184-.373c10.266-1.314 19.838-6.001 27.105-13.374 8.478-8.603 13.126-20.158 12.926-32.123C823.397 201.301 703.836 65.045 541.132 29.942S211.635 69.315 131.746 212.741c-23.491 41.309-38.335 86.805-43.662 133.819a254 254 0 0 0-2.705 42.079c.538 173.407 123.998 323.081 296.747 359.756m168.852 126.236c195.021-5.838 358.009-147.412 387.548-336.632.188-1.13.188-2.282 0-3.412l-.052-5.342c-.642-7.061-3.541-13.796-8.356-19.202-6.019-6.759-14.534-10.886-23.662-11.469L573.4 476.859c-8.944.436-17.52 3.915-24.201 9.928-8.017 7.216-12.562 17.414-12.518 28.088l-22.024 321.847v5.307c.401 9.052 4.455 17.575 11.269 23.691s15.827 9.322 25.052 8.91z" data-tags="Graph" glyph-name="Graph" unicode=""/><glyph d="M353.271 853.31c26.88-.817 52.907-5.511 78.123-14.087h2.517c1.707-.811 2.987-1.707 3.84-2.517 9.429-3.029 18.347-6.443 26.88-11.136l16.213-7.253c6.4-3.413 14.08-9.771 18.347-12.373 4.267-2.517 8.96-5.12 12.8-8.064 47.403 36.224 104.96 55.851 164.267 55.431 26.923 0 53.803-3.804 79.36-12.38 157.483-51.2 214.229-224 166.827-375.04-26.88-77.184-70.827-147.627-128.384-205.184-82.389-79.787-172.8-150.613-270.123-211.627l-10.667-6.443-11.093 6.869c-97.664 60.587-188.587 131.413-271.744 211.627-57.173 57.557-101.163 127.573-128.469 204.757-48.213 151.04 8.533 323.84 167.723 375.936a192.8 192.8 0 0 0 37.931 8.917h5.12c11.989 1.749 23.893 2.567 35.84 2.567zm380.16-134.833c-17.493 6.016-36.693-3.413-43.093-21.333-5.973-17.92 3.413-37.547 21.333-43.904 27.349-10.24 45.653-37.163 45.653-66.987v-1.323c-.811-9.771 2.133-19.2 8.107-26.453s14.933-11.477 24.32-12.373c17.493.469 32.427 14.507 33.707 32.469v5.077c1.28 59.776-34.944 113.92-90.027 134.827" data-tags="Heart" glyph-name="Heart" unicode=""/><glyph d="M817.935 801.53c12.489 12.182 32.056 12.182 44.129 0 12.489-12.182 12.489-32.344 0-44.526l-75.769-76.45c60.366-55.448 111.572-130.218 149.873-220.11 3.331-7.981 3.331-17.222 0-24.783-89.091-209.188-247.707-334.365-424.225-334.365h-.416c-80.349 0-157.367 26.464-225.226 74.77l-80.765-81.491c-6.245-6.301-14.155-9.241-22.065-9.241s-16.236 2.94-22.065 9.241c-10.408 10.501-12.073 27.304-3.747 39.485l1.249 1.68 615.73 621.264c.833.84 1.665 1.68 2.082 2.52.833.84 1.665 1.68 2.082 2.52zm-305.879-7.304c59.533 0 117.401-14.282 170.689-41.166L543.696 612.761c-9.992 1.68-20.816 2.94-31.64 2.94-92.006 0-166.526-75.19-166.526-168.023 0-10.921 1.249-21.843 2.914-31.924L194.407 260.333C152.776 309.06 116.556 367.868 87.83 435.497c-3.331 7.561-3.331 16.802 0 24.783 89.091 209.188 247.707 333.945 423.809 333.945zm137.272-251.871-45.378-45.786c7.494-14.282 11.657-31.084 11.657-48.727 0-57.548-46.627-104.594-103.662-104.594-17.485 0-34.138 4.201-48.293 11.762l-45.378-45.786c26.644-18.062 59.117-28.984 93.671-28.984 91.589 0 166.11 75.19 166.11 167.603 0 34.865-10.824 67.629-28.726 94.513z" data-tags="Hide" glyph-name="Hide" unicode=""/><glyph d="M389.751 73.671v130.463c0 33.303 27.195 60.301 60.743 60.301h122.631c16.11 0 31.56-6.353 42.952-17.662s17.791-26.647 17.791-42.639V73.671c-.102-13.846 5.367-27.159 15.194-36.985s23.197-15.352 37.144-15.352h83.664c39.075-.1 76.583 15.239 104.249 42.632s43.214 64.59 43.214 103.381v371.668c0 31.334-13.992 61.057-38.203 81.16L594.518 845.83c-49.509 39.565-120.444 38.288-168.475-3.034L147.926 620.175c-25.356-19.511-40.51-49.321-41.259-81.16V167.726c0-80.85 66.022-146.392 147.463-146.392h81.754c28.968 0 52.51 23.201 52.72 51.958z" data-tags="Home" glyph-name="Home" unicode=""/><glyph d="M697.745 874.65c144.085 0 240.896-100.779 240.896-251.221V272.965c0-6.443-1.152-12.203-1.493-18.432-.213-3.627-.171-7.253-.469-10.88-.171-1.621-.64-3.115-.811-4.736-1.408-13.397-3.584-26.197-6.613-38.613-.768-3.328-1.664-6.528-2.56-9.771-3.413-12.032-7.424-23.509-12.245-34.475-1.408-3.072-2.944-6.016-4.395-9.045-5.205-10.453-10.837-20.48-17.365-29.781l-6.315-8.192c-6.784-8.789-13.867-17.195-21.888-24.832-2.603-2.475-5.547-4.608-8.277-6.955-8.235-7.083-16.64-13.867-25.899-19.669-3.328-2.091-6.997-3.627-10.411-5.504-9.429-5.205-18.944-10.283-29.312-14.208-4.267-1.621-9.003-2.475-13.44-3.883-10.197-3.157-20.267-6.443-31.232-8.32-2.759-.484-5.599-.825-8.481-1.092l-17.503-1.255c-7.424-.555-14.464-2.005-22.187-2.005H325.862c-16.043 0-31.36 1.621-46.165 4.053-.555.085-1.067.171-1.579.256-57.728 9.941-105.643 37.803-139.221 79.829-.384 0-.384.427-.768.811-33.749 42.496-52.821 99.627-52.821 166.699v350.464c0 150.443 96.896 251.221 240.555 251.221zm0-59.52H325.862c-109.952 0-180.992-75.392-180.992-191.701V272.965c0-32.64 6.059-61.781 16.427-86.997 1.323 1.579 83.968 102.357 84.352 102.699 29.525 33.707 84.949 83.968 157.696 53.547 17.493-7.253 32.853-17.451 46.933-26.411 24.448-16.341 38.827-24.021 53.76-22.741 6.187.853 11.989 2.688 17.493 6.101 23.808 14.677 91.093 112.811 95.147 118.144 46.507 60.587 118.187 76.8 177.92 40.96 4.011-2.389 20.384-13.621 38.133-26.272l13.398-9.638c13.313-9.672 25.855-19.098 32.991-25.146V623.43c0 116.309-71.04 191.701-181.376 191.701zM361.757 704c29.767 0 56.724-12.518 76.031-32.488 19.39-19.27 31.545-45.829 31.545-74.817 0-57.811-48.372-106.028-106.46-106.028-51.059 0-94.594 37.306-104.351 85.605-1.612 7.247-2.522 14.7-2.522 22.4C256 656.895 303.297 704 361.757 704" data-tags="Image 2" glyph-name="Image-2" unicode=""/><glyph d="M696.91 874.667c144.61 0 241.757-101.466 241.757-252.447V273.78c0-150.981-97.148-252.447-241.8-252.447H327.091c-144.61 0-241.757 101.466-241.757 252.447v348.44c0 150.981 97.148 252.447 241.757 252.447zm47.051-450.136c-45.736 28.533-81.047-11.536-90.572-24.349-9.182-12.373-17.076-26.023-25.4-39.673-20.337-33.684-43.634-72.52-83.964-95.108-58.608-32.451-103.1-2.554-135.107 19.198-12.013 8.102-23.683 15.763-35.31 20.871-28.66 12.373-54.446-1.717-92.717-50.328-20.079-25.406-39.987-50.592-60.152-75.69-12.056-15.015-9.182-38.175 7.079-48.215 25.957-15.983 57.621-24.57 93.403-24.57h359.584c20.294 0 40.631 2.774 60.024 9.115 43.677 14.266 78.344 46.938 96.45 90.089 15.274 36.282 22.697 80.314 8.409 116.948-4.762 12.153-11.885 23.469-21.881 33.42-26.215 26.023-50.713 50.328-79.845 68.293zM362.618 704C303.796 704 256 656.14 256 597.333s47.796-106.667 106.618-106.667c58.779 0 106.618 47.86 106.618 106.667S421.397 704 362.618 704" data-tags="Image" glyph-name="Image" unicode=""/><glyph d="M512.004 874.697c235.947 0 426.667-191.189 426.667-426.667 0-235.563-190.72-426.667-426.667-426.667-235.52 0-426.667 191.104-426.667 426.667 0 235.477 191.147 426.667 426.667 426.667m0-551.723c-20.48 0-37.12-16.64-37.12-37.12s16.64-37.547 37.547-37.547c20.48 0 37.12 17.067 37.12 37.547s-16.64 37.12-37.547 37.12m0 324.309c-20.48 0-37.547-17.109-37.547-37.547V421.149c0-20.523 17.067-37.12 37.547-37.12s37.12 16.597 37.12 37.12v188.587c0 20.437-16.64 37.547-37.12 37.547" data-tags="Info Circle" glyph-name="Info-Circle" unicode=""/><glyph d="M697.169 874.701c144.64 0 241.493-101.547 241.493-252.587V273.485c0-150.613-96.853-252.117-241.493-252.117h-369.92c-144.64 0-241.92 101.504-241.92 252.117v348.629c0 151.04 97.28 252.587 241.92 252.587zm-185.6-361.856c-20.48 0-37.12-17.024-37.12-37.547V286.711c0-20.48 16.64-37.12 37.12-37.12 20.907 0 37.547 16.64 37.547 37.12v188.587c0 20.523-16.64 37.547-37.547 37.547m.853 135.253c-20.907 0-37.547-16.64-37.547-37.547 0-20.437 16.64-37.12 36.693-37.12 21.333 0 37.973 16.683 37.973 37.12 0 20.907-16.64 37.547-37.12 37.547z" data-tags="Info Square" glyph-name="Info-Square" unicode=""/><glyph d="M511.72 874.667c198.941 0 362.946-158.63 362.946-354.891 0-98.898-35.968-190.714-95.168-268.536-65.31-85.843-145.807-160.635-236.414-219.343-20.737-13.568-39.453-14.592-62.212 0-91.124 58.708-171.621 133.5-236.371 219.343-59.243 77.822-95.168 169.638-95.168 268.536 0 196.261 164.006 354.891 362.387 354.891m0-246.478c-65.783 0-119.433-54.228-119.433-119.463 0-65.747 53.65-117.458 119.433-117.458 65.826 0 119.993 51.71 119.993 117.458 0 65.235-54.167 119.463-119.993 119.463" data-tags="Location" glyph-name="Location" unicode=""/><glyph d="M511.35 874.667c130.933 0 236.286-103.031 236.286-230.23v-65.423c73.487-22.938 127.031-89.463 127.031-168.92V199.453c0-98.367-81.551-178.121-182.092-178.121H331.469c-100.584 0-182.135 79.754-182.135 178.121v210.641c0 79.457 53.587 145.982 127.031 168.92v65.423c.434 127.199 105.787 230.23 234.985 230.23m.433-485.73c-20.811 0-37.719-16.536-37.719-36.888v-94.127c0-20.776 16.909-37.312 37.719-37.312 21.244 0 38.153 16.536 38.153 37.312v94.127c0 20.352-16.909 36.888-38.153 36.888m.434 411.53c-88.011 0-159.547-69.535-159.981-155.182v-57.07h319.528v56.222c0 86.071-71.536 156.03-159.547 156.03" data-tags="Lock" glyph-name="Lock" unicode=""/><glyph d="M311.062 415.151H140.011c-18.188 0-33.344 14.507-33.344 32.853 0 17.92 15.156 32.853 33.344 32.853h171.051l.013 203.942c0 104.533 88.119 189.867 196.065 189.867h215.01c107.505 0 195.183-85.333 195.183-189.44V210.773c0-104.533-87.678-189.44-196.065-189.44h-214.57c-107.505 0-195.624 84.907-195.624 189.013v204.8h273.169l-70.495-68.267c-13.218-12.8-13.218-33.707 0-46.507 6.609-6.4 15.421-9.387 24.233-9.387 8.371 0 17.183 2.987 23.792 9.387l128.654 124.16c6.609 5.973 10.134 14.507 10.134 23.467 0 8.533-3.525 17.067-10.134 23.04l-128.654 124.16c-13.218 12.8-34.807 12.8-48.025 0s-13.218-33.707 0-46.507l70.495-67.84H311.074z" data-tags="Login" glyph-name="Login" unicode=""/><glyph d="M490.357 874.667c105.922 0 192.31-84.907 192.31-189.44V480.854H422.202c-18.667 0-33.426-14.507-33.426-32.853 0-17.92 14.76-32.853 33.426-32.853h260.465V211.201c0-104.533-86.388-189.867-193.178-189.867H278.078c-106.357 0-192.744 84.907-192.744 189.44v474.027c0 104.96 86.822 189.867 193.178 189.867zm300.692-279.476c12.8 13.227 33.707 13.227 46.507.427l124.587-124.16c6.4-6.4 9.813-14.507 9.813-23.467 0-8.533-3.413-17.067-9.813-23.04l-124.587-124.16c-6.4-6.4-14.933-9.813-23.04-9.813-8.533 0-17.067 3.413-23.467 9.813-12.8 12.8-12.8 33.707 0 46.507l68.267 67.84h-176.64v65.707h176.64l-68.267 67.84c-12.8 12.8-12.8 33.707 0 46.507z" data-tags="Logout" glyph-name="Logout" unicode=""/><glyph d="M722.748 832c57.216 0 112.256-22.613 152.747-63.189 40.533-40.491 63.189-95.104 63.189-152.277V279.467C938.684 160.427 841.831 64 722.748 64H301.244C182.161 64 85.351 160.427 85.351 279.467v337.067c0 119.04 96.384 215.467 215.893 215.467zm48.256-221.867c-8.96.469-17.493-2.56-23.936-8.533L554.684 448c-24.747-20.523-60.203-20.523-85.333 0l-192 153.6c-13.269 9.813-31.616 8.533-42.667-2.987-11.52-11.52-12.8-29.867-3.029-42.667l5.589-5.547 194.133-151.467c23.893-18.773 52.864-29.013 83.2-29.013 30.251 0 59.733 10.24 83.584 29.013L790.63 552.959l3.413 3.413c10.197 12.373 10.197 30.293-.469 42.667-5.931 6.357-14.08 10.24-22.571 11.093z" data-tags="Message" glyph-name="Message" unicode=""/><glyph d="M512.004 874.671c235.52 0 426.667-191.147 426.667-426.667S747.524 21.337 512.004 21.337c-235.947 0-426.667 191.147-426.667 426.667s190.72 426.667 426.667 426.667m191.147-375.509c-28.587 0-51.2-22.997-51.2-51.157s22.613-51.2 51.2-51.2c28.16 0 50.773 23.04 50.773 51.2s-22.613 51.157-50.773 51.157m-191.147 0c-28.16 0-51.2-22.997-51.2-51.157s23.04-51.2 51.2-51.2 50.773 23.04 50.773 51.2-22.613 51.157-50.773 51.157m-191.146 0c-28.16 0-51.2-22.997-51.2-51.157s23.04-51.2 51.2-51.2 50.773 23.04 50.773 51.2-22.613 51.157-50.773 51.157" data-tags="More Circle" glyph-name="More-Circle" unicode=""/><glyph d="M697.182 874.671c144.64 0 241.493-101.547 241.493-252.587V273.497c0-150.613-96.853-252.16-241.493-252.16h-369.92c-144.64 0-241.92 101.547-241.92 252.16v348.587c0 151.04 97.28 252.587 241.92 252.587zm5.973-375.509c-28.16 0-51.2-22.997-51.2-51.157s23.04-51.2 51.2-51.2 50.773 23.04 50.773 51.2-22.613 51.157-50.773 51.157m-191.146 0c-28.16 0-51.2-22.997-51.2-51.157s23.04-51.2 51.2-51.2 51.2 23.04 51.2 51.2-23.04 51.157-51.2 51.157m-191.147 0c-28.16 0-51.2-22.997-51.2-51.157s23.04-51.2 51.2-51.2 51.2 23.04 51.2 51.2-23.04 51.157-51.2 51.157" data-tags="More Square" glyph-name="More-Square" unicode=""/><glyph d="M425.096 139.609c21.33 4.512 151.3 4.512 172.63 0 18.234-4.211 37.952-14.052 37.952-35.538-1.06-20.455-13.061-38.589-29.641-50.106a155.1 155.1 0 0 0-73.106-31.198c-14.587-1.891-28.92-1.934-42.998 0-26.418 3.825-51.649 14.439-73.106 31.241-16.623 11.474-28.623 29.608-29.683 50.063 0 21.486 19.718 31.327 37.952 35.538m88.833 735.058c88.753 0 179.415-42.113 233.269-111.986 34.942-44.992 50.971-89.941 50.971-159.814V584.69c0-53.586 14.163-85.171 45.331-121.568 23.619-26.815 31.167-61.235 31.167-98.578 0-37.3-12.255-72.709-36.807-101.457-32.143-34.464-77.473-56.466-123.737-60.29-67.042-5.715-134.126-10.528-202.101-10.528-68.017 0-135.059 2.879-202.101 10.528-46.306 3.825-91.637 25.826-123.737 60.29-24.552 28.748-36.85 64.158-36.85 101.457 0 37.343 7.59 71.764 31.167 98.578 32.143 36.397 45.373 67.982 45.373 121.568v18.177c0 71.764 17.895 118.689 54.745 164.627 54.787 66.994 142.607 107.173 229.495 107.173z" data-tags="Notification" glyph-name="Notification" unicode=""/><glyph d="M565.439 874.667c10.561 0 19.432-8.96 19.432-19.627V717.653c0-78.08 63.366-142.08 141.096-142.507 31.683 0 57.452-.427 76.462-.427l7.197.032c12.986.099 30.471.395 45.608.395 10.983 0 19.432-8.533 19.432-19.2v-343.04c0-105.813-85.333-191.573-190.099-191.573H348.725c-110.257 0-199.393 90.027-199.393 200.96V682.24c0 105.813 84.911 192.427 190.521 192.427zm-68.858-287.574c-17.32 0-31.683-14.08-31.683-32V349.44l-67.168 68.267c-12.251 12.373-32.106 12.373-44.356 0s-12.251-32.427 0-45.227l120.818-122.453c2.957-2.987 6.337-5.12 10.139-6.827s8.026-2.56 12.251-2.56 8.026.853 11.828 2.56 7.182 3.84 10.139 6.827L639.79 372.48c12.251 12.8 12.251 32.853-.422 45.227-12.251 12.373-32.106 12.373-44.356 0l-67.168-68.267v205.653c0 17.92-13.941 32-31.261 32zm149.608 248.913c0 18.389 22.094 27.52 34.683 14.251C726.58 802.3 806.38 718.46 850.989 671.612c12.335-12.928 3.295-34.389-14.532-34.432-34.683-.128-75.617 0-105.061.299-46.722 0-85.207 38.869-85.207 86.059z" data-tags="Paper Download" glyph-name="Paper-Download" unicode=""/><glyph d="M565.439 874.667c10.561 0 19.432-8.96 19.432-19.627V717.653c0-78.08 63.789-142.08 141.096-142.507 31.683 0 57.452-.427 76.462-.427 13.096 0 35.063.427 52.805.427 10.983 0 19.432-8.533 19.432-19.2v-343.04c0-105.813-84.911-191.573-190.099-191.573H348.725c-110.257 0-199.393 90.027-199.393 200.96V682.24c0 105.813 85.333 192.427 190.521 192.427zM451.802 502.613c-12.251 12.8-32.106 12.8-44.356 0-12.251-12.373-12.251-32.427 0-44.8l51.538-52.053-51.538-52.053c-12.251-12.373-12.251-32.427 0-44.8 5.914-6.4 13.941-9.387 21.967-9.387s16.475 2.987 22.389 9.387l51.538 52.053 51.538-52.053c6.337-6.4 14.363-9.387 22.389-9.387s16.053 2.987 22.389 9.387c12.251 12.373 12.251 32.427 0 44.8l-51.538 52.053 51.538 52.053c12.251 12.373 12.251 32.427 0 44.8a30.91 30.91 0 0 1-44.779 0l-51.538-52.053zm194.437 333.389c0 18.389 22.094 27.52 34.683 14.251 45.708-47.957 125.508-131.797 170.117-178.645 12.293-12.928 3.295-34.389-14.532-34.432-34.725-.128-75.617 0-105.061.299-46.722 0-85.207 38.869-85.207 86.059z" data-tags="Paper Fail" glyph-name="Paper-Fail" unicode=""/><glyph d="M565.439 874.667c10.983 0 19.432-8.96 19.432-19.627V717.653c0-78.08 63.789-142.08 141.096-142.507 32.106 0 57.452-.427 76.884-.427 13.096 0 34.64.427 52.805.427 10.561 0 19.01-8.533 19.01-19.2v-343.04c0-105.813-84.911-191.573-190.099-191.573H348.725c-109.835 0-199.393 90.027-199.393 200.96V682.24c0 105.813 85.333 192.427 190.521 192.427zm43.089-436.907H399.842c-17.32 0-31.683-14.08-31.683-32 0-17.493 14.363-31.573 31.683-31.573h208.686c17.32 0 31.683 14.08 31.683 31.573 0 17.92-14.363 32-31.683 32m37.855 398.242c0 18.389 22.094 27.52 34.725 14.251 45.666-47.957 125.465-131.797 170.075-178.645 12.335-12.928 3.295-34.389-14.49-34.432-34.725-.128-75.659 0-105.104.299-46.722 0-85.207 38.869-85.207 86.059z" data-tags="Paper Negative" glyph-name="Paper-Negative" unicode=""/><glyph d="M565.439 874.667c10.983 0 19.432-8.96 19.432-19.627V717.653c0-78.08 63.789-142.08 141.096-142.507 32.106 0 57.452-.427 76.884-.427 13.096 0 34.64.427 52.805.427 10.561 0 19.01-8.533 19.01-19.2v-343.04c0-105.813-84.911-191.573-190.099-191.573H348.725c-109.835 0-199.393 90.027-199.393 200.96V682.24c0 105.813 85.333 192.427 190.521 192.427zm-61.254-331.52c-17.32 0-31.683-14.08-31.683-31.573v-73.813h-72.66c-17.32 0-31.683-14.08-31.683-32 0-17.493 14.363-31.573 31.683-31.573h72.66v-73.813c0-17.493 14.363-31.573 31.683-31.573s31.261 14.08 31.261 31.573v73.813h73.083c17.32 0 31.683 14.08 31.683 31.573 0 17.92-14.363 32-31.683 32h-73.083v73.813c0 17.493-13.941 31.573-31.261 31.573m142.198 292.855c0 18.389 22.094 27.52 34.725 14.251 45.666-47.957 125.465-131.797 170.075-178.645 12.335-12.928 3.295-34.389-14.49-34.432-34.725-.128-75.659 0-105.104.299-46.722 0-85.207 38.869-85.207 86.059z" data-tags="Paper Plus" glyph-name="Paper-Plus" unicode=""/><glyph d="M565.439 874.667c10.561 0 19.432-8.96 19.432-19.627V717.653c0-78.08 63.366-142.08 141.096-142.507 31.683 0 57.03-.427 76.462-.427 13.096 0 34.64.427 52.805.427 10.561 0 19.432-8.533 19.432-19.2v-343.04c0-105.813-85.333-191.573-190.099-191.573H348.725c-110.257 0-199.393 90.027-199.393 200.96V682.24c0 105.813 84.911 192.427 190.521 192.427zm-68.858-287.574c-4.224 0-8.449-.853-12.251-2.56s-7.182-3.84-10.139-6.827l-120.818-122.88c-12.251-12.373-12.251-32.427 0-44.8s32.106-12.373 44.356 0l67.168 68.267v-206.08c0-17.493 13.941-31.573 31.683-31.573 17.32 0 31.261 14.08 31.261 31.573v206.08l67.168-68.267c12.251-12.373 32.106-12.373 44.356 0 12.673 12.373 12.673 32.427.422 44.8l-121.241 122.88c-2.957 2.987-6.337 5.12-10.139 6.827s-7.604 2.56-11.828 2.56zm149.616 248.918c0 18.389 22.051 27.52 34.683 14.251 45.708-47.957 125.508-131.797 170.117-178.645 12.293-12.928 3.253-34.389-14.532-34.432-34.725-.128-75.617 0-105.061.299-46.722 0-85.207 38.869-85.207 86.059z" data-tags="Paper Upload" glyph-name="Paper-Upload" unicode=""/><glyph d="M565.439 874.667c10.983 0 19.432-8.96 19.432-19.627V717.653c0-78.08 63.789-142.08 141.096-142.507 32.106 0 57.452-.427 76.884-.427l7.197.032c12.986.099 30.471.395 45.608.395 10.561 0 19.01-8.533 19.01-19.2v-343.04c0-105.813-84.911-191.573-189.677-191.573H348.725c-109.835 0-199.393 90.027-199.393 200.96V682.24c0 105.813 85.333 192.427 190.521 192.427zm45.201-550.4H380.831c-17.32 0-31.683-14.08-31.683-31.573s14.363-32 31.683-32H610.64c17.32 0 31.683 14.507 31.683 32s-14.363 31.573-31.683 31.573M523.617 537.6H380.832c-17.32 0-31.683-14.507-31.683-32s14.363-31.573 31.683-31.573h142.785c17.32 0 31.683 14.08 31.683 31.573s-14.363 32-31.683 32M646.43 836.011c0 18.389 22.094 27.52 34.725 14.251 45.666-47.957 125.465-131.797 170.075-178.645 12.335-12.928 3.295-34.389-14.49-34.432-34.725-.128-75.659 0-105.104.299-46.722 0-85.207 38.869-85.207 86.059z" data-tags="Paper" glyph-name="Paper" unicode=""/><glyph d="M696.947 874.701c144.555 0 241.707-101.461 241.707-252.459V273.783c0-150.997-97.152-252.416-241.749-252.416H327.07c-144.597 0-241.749 101.419-241.749 252.416v348.459c0 150.997 97.152 252.459 241.749 252.459zM377.203 559.01c-61.184 0-110.976-49.792-110.976-110.976 0-61.227 49.792-111.019 110.976-111.019 50.005 0 91.904 33.451 105.728 79.019h90.112v-47.019c0-17.664 14.336-32 32-32s32 14.336 32 32v47.019h56.747v-47.019c0-17.664 14.336-32 32-32s32 14.336 32 32v79.019c0 17.664-14.336 32-32 32H482.931c-13.824 45.525-55.723 78.976-105.728 78.976m.004-63.996c25.899 0 47.019-21.077 47.019-47.019 0-25.899-21.12-46.976-47.019-46.976s-47.019 21.077-47.019 46.976c0 25.941 21.12 47.019 47.019 47.019" data-tags="Password" glyph-name="Password" unicode=""/><glyph d="M512 874.667c235.161 0 426.667-191.413 426.667-426.914 0-235.006-191.506-426.42-426.667-426.42S85.333 212.746 85.333 447.753c0 235.5 191.506 426.914 426.667 426.914m-48.597-257.276q-13.59 0-25.946-6.175c-10.296-5.763-18.533-14.819-23.063-25.522-2.883-7.41-7.413-29.638-7.413-30.05-4.53-24.287-7.001-63.804-7.001-107.438 0-41.617 2.471-79.447 6.178-104.145.412-.412 4.942-27.992 9.884-37.459 9.06-17.289 26.77-27.992 45.714-27.992h1.647c12.355.412 38.301 11.114 38.301 11.526 43.655 18.112 129.73 74.507 164.324 111.967l2.471 2.47c4.53 4.528 10.296 11.526 11.532 13.173 6.589 8.644 9.884 19.347 9.884 30.009 0 11.979-3.707 23.093-10.708 32.149-1.647 1.647-7.825 8.644-13.591 14.407-33.771 36.224-121.905 95.501-168.031 113.613-7.001 2.84-24.71 9.056-34.183 9.468z" data-tags="Play" glyph-name="Play" unicode=""/><glyph d="M710.835 874.662c145.067 0 227.84-81.92 227.84-227.413V248.742c0-144.64-82.347-227.413-227.413-227.413H312.755c-145.493 0-227.413 82.773-227.413 227.413v398.507c0 145.493 81.92 227.413 227.413 227.413zM511.582 639.569a35.326 35.326 0 0 1-35.413-35.413v-120.32H355.422c-9.387 0-18.347-3.84-25.173-10.24-6.4-6.827-10.24-15.744-10.24-25.173 0-19.627 15.787-35.413 35.413-35.84h120.747V291.836c0-19.627 15.787-35.413 35.413-35.413s35.413 15.787 35.413 35.413v120.747h121.173c19.627.427 35.413 16.213 35.413 35.84s-15.787 35.413-35.413 35.413H546.995v120.32a35.326 35.326 0 0 1-35.413 35.413" data-tags="Plus" glyph-name="Plus" unicode=""/><glyph d="M512 312.579c185.115 0 341.333-30.08 341.333-146.135C853.333 50.347 696.09 21.333 512 21.333c-185.072 0-341.333 30.08-341.333 146.135 0 116.097 157.243 145.111 341.333 145.111m0 562.088c125.402 0 225.877-100.438 225.877-225.752S637.402 423.121 512 423.121c-125.359 0-225.877 100.481-225.877 225.794S386.641 874.667 512 874.667" data-tags="Profile" glyph-name="Profile" unicode=""/><glyph d="M948.864 446.241c17.92 0 32.469-14.267 32.469-31.881 0-17.572-14.549-31.798-32.469-31.798h-45.312V230.687c0-91.962-76.245-166.686-169.941-166.686h-67.968c-17.963 0-32.512 14.267-32.512 31.881 0 17.572 14.549 31.839 32.512 31.839h67.968c57.899 0 105.003 46.148 105.003 102.966v151.875H726.699v-42.299c.427-52.926-42.88-96.188-96.853-96.69H394.155c-53.931.502-97.237 43.764-96.811 96.69v42.299H185.429V230.519c0-56.608 46.976-102.673 104.704-102.756l69.461-.042c17.92 0 32.469-14.267 32.469-31.839-.043-17.614-14.549-31.881-32.512-31.881l-69.504.042c-93.483.084-169.6 74.766-169.6 166.477v152.043H75.178c-17.92 0-32.512 14.225-32.512 31.798 0 17.614 14.592 31.881 32.512 31.881zM629.867 672.313c25.813 0 50.603-10.167 68.651-28.283 18.176-18.284 28.245-42.843 28.203-68.407v-53.135c-.213-6.234-5.291-11.297-11.648-11.464H308.886c-6.315.209-11.392 5.272-11.524 11.464v53.135c-.466 52.926 42.884 96.146 96.814 96.69zm103.727 159.674c93.739 0 169.941-74.724 169.941-166.645v-79.201c0-17.572-14.507-31.881-32.469-31.881-17.92 0-32.469 14.309-32.469 31.881v79.201c0 56.775-47.104 102.966-105.003 102.966h-67.968c-17.92 0-32.469 14.225-32.469 31.798 0 17.614 14.549 31.881 32.469 31.881zM359.582 832c17.92 0 32.469-14.267 32.469-31.881 0-17.572-14.507-31.839-32.469-31.839l-69.504-.042c-57.685-.084-104.619-46.148-104.619-102.756v-79.327c0-17.572-14.592-31.881-32.512-31.881s-32.469 14.309-32.469 31.881v79.327c0 91.711 76.075 166.394 169.557 166.477z" data-tags="Scan" glyph-name="Scan" unicode=""/><glyph d="M751.817 206.751c16.492 16.38 42.928 16.38 59.42 0l108.999-87.984h1.892c22.052-22.289 22.052-58.427 0-80.716s-57.805-22.289-79.857 0l-93.887 107.541a46.22 46.22 0 0 0-9.925 28.643c0 12.202 4.807 23.903 13.358 32.516M451.313 874.667c97.064 0 190.152-38.973 258.786-108.346S817.292 602.858 817.292 504.75c0-204.299-163.855-369.917-365.979-369.917S85.334 300.45 85.334 504.75s163.855 369.917 365.979 369.917" data-tags="Search" glyph-name="Search" unicode=""/><glyph d="M914.576 849.835c-21.342 21.904-52.928 30.065-82.38 21.475L145.408 671.593c-31.074-8.633-53.099-33.415-59.032-64.897-6.061-32.041 15.11-72.714 42.77-89.722L343.89 384.989c22.025-13.529 50.453-10.136 68.679 8.246l245.903 247.434c12.378 12.885 32.867 12.885 45.245 0 12.378-12.455 12.378-32.642 0-45.527l-246.33-247.477c-18.269-18.34-21.684-46.901-8.238-69.063L580.36 61.705c15.366-25.77 41.83-40.373 70.856-40.373 3.415 0 7.256 0 10.671.429 33.294 4.295 59.758 27.058 69.575 59.271l203.603 685.909c8.964 29.206.854 60.989-20.488 82.893z" data-tags="Send" glyph-name="Send" unicode=""/><glyph d="M542.597 874.662c32.267 0 61.481-17.92 77.614-44.373 7.849-12.8 13.081-28.587 11.773-45.227-.872-12.8 3.052-25.6 10.029-37.547 22.238-36.267 71.51-49.92 109.881-29.44 43.167 24.747 97.672 9.813 122.526-32.427l29.214-50.347c25.29-42.24 11.337-96.427-32.267-120.747-37.063-21.76-50.144-69.973-27.906-106.667 6.977-11.52 14.825-21.333 27.034-27.307 15.261-8.107 27.034-20.907 35.319-33.707 16.133-26.453 14.825-58.88-.872-87.467l-30.522-51.2c-16.133-27.307-46.22-44.373-77.178-44.373-15.261 0-32.267 4.267-46.22 12.8-11.337 7.253-24.418 9.813-38.371 9.813-43.167 0-79.358-35.413-80.667-77.653 0-49.067-40.115-87.467-90.259-87.467h-59.301c-50.58 0-90.695 38.4-90.695 87.467-.872 42.24-37.063 77.653-80.23 77.653-14.389 0-27.47-2.56-38.371-9.813-13.953-8.533-31.395-12.8-46.22-12.8-31.395 0-61.481 17.067-77.614 44.373l-30.086 51.2c-16.133 27.733-17.005 61.013-.872 87.467 6.977 12.8 20.058 25.6 34.883 33.707 12.209 5.973 20.058 15.787 27.47 27.307 21.802 36.693 8.721 84.907-28.342 106.667-43.167 24.32-57.121 78.507-32.267 120.747l29.214 50.347c25.29 42.24 79.358 57.173 122.962 32.427 37.935-20.48 87.207-6.827 109.445 29.44 6.977 11.947 10.901 24.747 10.029 37.547-.872 16.64 3.924 32.427 12.209 45.227 16.133 26.453 45.348 43.52 77.178 44.373zm-30.086-306.346c-68.458 0-123.834-53.76-123.834-120.747s55.376-120.32 123.834-120.32 122.526 53.333 122.526 120.32-54.068 120.747-122.526 120.747" data-tags="Setting" glyph-name="Setting" unicode=""/><glyph d="m536.352 870.419 283.197-95.017c31.7-10.585 53.134-39.705 53.306-72.34l1.804-283.335c.558-85.896-30.755-169.197-88.099-234.466-26.374-29.957-60.179-55.688-103.348-78.699l-152.23-81.377a33.4 33.4 0 0 0-15.292-3.85 32.56 32.56 0 0 0-15.292 3.683l-153.647 79.494c-43.641 22.635-77.747 47.989-104.379 77.528-58.289 64.6-90.676 147.525-91.235 233.546l-1.805 283.125c-.171 32.676 20.877 62.006 52.405 73.009l282.123 98.406c16.752 5.941 35.437 6.067 52.49.293zm135.426-303.748c-12.671 12.175-33.075 12.092-45.574-.251L482.479 424.753l-58.847 56.567c-12.671 12.175-33.032 12.05-45.574-.293-12.5-12.343-12.371-32.174.301-44.349l81.742-78.658c6.357-6.109 14.604-9.121 22.852-9.039 8.247.044 16.451 3.14 22.723 9.332l166.361 164.009c12.5 12.343 12.371 32.174-.258 44.349z" data-tags="Shield Done" glyph-name="Shield-Done" unicode=""/><glyph d="M483.874 870.242c16.748 5.899 35.214 5.899 52.391 0l282.996-94.932c31.778-10.46 53.25-39.789 53.25-72.423l2.152-283.207c.425-85.77-30.924-169.029-88.468-234.339-26.195-30.124-60.121-55.646-103.064-78.657L530.682 25.098c-4.724-2.51-9.877-3.765-15.03-3.765s-10.736 1.255-15.46 3.765l-153.737 79.494c-43.373 22.593-77.298 47.696-103.923 77.402-58.403 64.432-91.04 147.691-91.469 233.46l-1.724 283.29c-.423 32.634 21.049 61.88 52.397 72.799zm-30.06-309.565c-12.454 12.133-32.637 12.133-45.52 0-12.454-12.593-12.454-32.258 0-44.391l57.973-56.441-57.973-56.524c-12.454-12.133-12.454-32.216 0-44.349 6.441-6.276 14.601-9.163 22.76-9.163 8.589 0 16.748 2.887 22.76 9.163l57.973 56.482 57.973-56.482c6.441-6.276 14.601-9.163 22.76-9.163s16.748 2.887 22.76 9.163c12.454 12.133 12.454 32.216 0 44.349l-57.973 56.524 57.973 56.441c12.454 12.133 12.454 31.797 0 44.391-12.454 12.133-33.066 12.133-45.52 0l-57.973-56.524z" data-tags="Shield Fail" glyph-name="Shield-Fail" unicode=""/><glyph d="M512 789.333c88.247 0 171.915-30.617 244.761-87.299 72.846-56.268 134.868-138.602 179.408-241.623 3.33-7.861 3.33-16.963 0-24.411C847.089 229.959 688.494 106.665 512 106.665h-.416c-176.078 0-334.673 123.294-423.753 329.335-3.33 7.447-3.33 16.549 0 24.411 89.08 206.041 247.675 328.921 423.753 328.921zm0-175.838c-91.993 0-166.504-74.059-166.504-165.495 0-91.022 74.511-165.081 166.504-165.081 91.577 0 166.088 74.059 166.088 165.081 0 91.436-74.511 165.495-166.088 165.495m.05-61.97c57.028 0 103.649-46.339 103.649-103.434 0-56.682-46.621-103.021-103.649-103.021-57.444 0-104.065 46.339-104.065 103.021 0 7.034.833 13.653 2.081 20.273h2.081c46.205 0 83.668 36.409 85.333 81.92 4.579.827 9.574 1.241 14.569 1.241z" data-tags="Show" glyph-name="Show" unicode=""/><glyph d="M764.523 349.009c-11.051-10.709-16.128-26.197-13.611-41.387l37.931-209.92c3.2-17.792-4.309-35.797-19.2-46.08-14.592-10.667-34.005-11.947-49.92-3.413l-188.971 98.56c-6.571 3.499-13.867 5.376-21.333 5.589h-11.563c-4.011-.597-7.936-1.877-11.52-3.84L297.323 49.489a49.85 49.85 0 0 0-30.293-4.693c-25.259 4.779-42.112 28.843-37.973 54.229l37.973 209.92a47.75 47.75 0 0 1-13.611 41.771L99.35 500.049c-12.885 12.501-17.365 31.275-11.477 48.213 5.717 16.896 20.309 29.227 37.931 32l212.053 30.763c16.128 1.664 30.293 11.477 37.547 25.984l93.44 191.573c2.219 4.267 5.077 8.192 8.533 11.52l3.84 2.987c2.005 2.219 4.309 4.053 6.869 5.547l4.651 1.707 7.253 2.987h17.963c16.043-1.664 30.165-11.264 37.547-25.6l94.677-190.72c6.827-13.952 20.096-23.637 35.413-25.984l212.053-30.763c17.92-2.56 32.896-14.933 38.827-32 5.589-17.109.768-35.883-12.373-48.213z" data-tags="Star" glyph-name="Star" unicode=""/><glyph d="M738.132 412.613c51.732 0 98.57-2.939 127.381-8.413.449 0 26.815-5.423 35.603-8.919 12.683-5.473 23.419-15.355 30.26-27.721 4.894-9.882 7.29-20.322 7.29-31.218-.449-11.352-7.79-32.687-11.235-41.1-21.422-55.442-91.729-161.409-134.622-202.053-6.841-6.892-15.13-14.342-17.077-16.318-10.786-8.413-23.918-12.872-38.05-12.872-12.733 0-25.416 3.953-35.653 11.909-5.318 3.801-13.08 11.365-16.628 14.909l-1.897 1.916c-44.441 41.556-111.253 145.091-132.724 197.593-.458 0-11.153 26.189-13.317 41.991l-.365 4.025v1.976c0 22.805 12.683 44.09 33.206 54.986 11.235 5.929 43.892 11.403 44.391 11.909 29.261 4.46 74.152 7.399 123.437 7.399zm-452.029-2.609c20.448 0 37.279-15.599 39.579-35.721l.268-4.719 10.936-195.359c0-28.48-22.72-51.538-50.783-51.538-26.309 0-47.966 20.266-50.57 46.266l-.263 5.272 10.985 195.359c0 22.348 17.826 40.44 39.847 40.44zM286.367 832c12.633 0 25.317-3.953 35.603-11.858 4.432-3.199 10.56-8.991 14.534-12.885l3.992-3.99c44.391-41.606 111.253-145.088 132.724-197.589.412 0 11.146-26.231 13.316-42.04l.366-4.026v-1.976c0-22.754-12.733-44.038-33.206-54.934-11.235-5.98-43.892-11.402-44.391-11.909-29.261-4.46-74.152-7.399-123.437-7.399-51.732 0-98.57 2.939-127.381 8.412-.499 0-26.815 5.422-35.603 8.919-12.683 5.422-23.419 15.355-30.26 27.72-4.894 9.882-7.29 20.321-7.29 31.166.449 11.402 7.79 32.687 11.185 41.099 21.472 55.491 91.729 161.456 134.672 202.048 6.841 6.943 15.13 14.392 17.077 16.369 10.736 8.412 23.918 12.872 38.1 12.872zm451.54-58.667c26.309 0 47.922-20.266 50.521-46.267l.262-5.272-10.936-195.363c0-22.349-17.826-40.441-39.847-40.441-20.448 0-37.279 15.6-39.579 35.722l-.268 4.719-10.985 195.363c0 28.481 22.77 51.539 50.833 51.539z" data-tags="Swap" glyph-name="Swap" unicode=""/><glyph d="M697.178 874.671c144.64 0 241.493-101.547 241.493-252.587V273.455c0-150.571-96.853-252.117-241.493-252.117h-369.92c-144.64 0-241.92 101.547-241.92 252.117v348.629c0 151.04 97.28 252.587 241.92 252.587zm-6.827-298.667c-14.507 14.507-38.4 14.507-52.907 0L461.231 399.791l-74.667 74.667c-14.507 14.507-38.4 14.507-52.907 0s-14.507-37.973 0-52.907l101.547-101.12c7.253-7.253 16.64-10.667 26.027-10.667 9.813 0 19.2 3.413 26.453 10.667l202.667 202.667c14.507 14.507 14.507 37.973 0 52.907z" data-tags="Tick Square" glyph-name="Tick-Square" unicode=""/><glyph d="M761.856 832c97.451 0 176.768-78.593 176.768-175.153l.043-114.232a31.64 31.64 0 0 0-9.344-22.407c-6.016-5.961-14.123-9.301-22.656-9.301-35.029 0-63.531-28.241-63.531-62.95s28.501-62.95 63.531-62.95c17.664 0 32-14.205 32-31.708v-114.19c0-96.56-79.275-175.11-176.725-175.11h-499.84c-97.451 0-176.768 78.55-176.768 175.11v114.19c0 17.503 14.336 31.708 32 31.708 35.072 0 63.573 28.241 63.573 62.95 0 33.821-27.349 59.272-63.573 59.272-8.491 0-16.597 3.34-22.613 9.301s-9.387 14.036-9.387 22.407l.085 117.91c0 96.56 79.275 175.153 176.725 175.153zM512.085 612.118c-12.117 0-22.955-6.68-28.373-17.418l-31.104-62.443-69.376-10.02c-11.989-1.691-21.803-9.808-25.6-21.223-3.755-11.415-.725-23.76 7.979-32.13l50.304-48.534-11.861-68.615c-2.048-11.837 2.773-23.59 12.587-30.651 5.547-3.932 11.989-5.961 18.517-5.961 4.992 0 10.027 1.226 14.635 3.636l62.208 32.384 62.08-32.299c10.752-5.707 23.509-4.82 33.28 2.283 9.856 7.018 14.677 18.771 12.629 30.608l-11.904 68.615 50.304 48.534c8.747 8.371 11.776 20.716 7.979 32.13-3.755 11.415-13.568 19.532-25.429 21.181l-69.504 10.062-31.104 62.401c-5.333 10.738-16.171 17.418-28.245 17.46z" data-tags="Ticket Star" glyph-name="Ticket-Star" unicode=""/><glyph d="M530.61 789.333c13.865 0 25.13-10.944 25.13-24.453V662.26c0-16.435 14.03-30.065 30.948-30.065 17.331 0 30.948 13.629 30.948 30.065v102.62c0 13.509 11.265 24.453 25.171 24.453h134.52c89.13 0 161.341-70.151 161.341-156.737V531.579c0-8.017-3.301-15.634-9.078-21.246s-13.617-8.819-21.87-8.819c-30.535 0-55.293-24.052-55.293-53.315 0-29.463 24.469-53.395 54.716-53.715 17.042-.16 31.525-11.705 31.525-28.261V263.402c0-86.546-72.211-156.737-161.341-156.737h-134.52c-13.906 0-25.171 10.944-25.171 24.453v86.586c0 16.836-13.617 30.065-30.948 30.065-16.918 0-30.948-13.228-30.948-30.065v-86.586c0-13.509-11.265-24.453-25.13-24.453H246.674c-88.717 0-161.341 70.151-161.341 156.737v102.821c0 16.556 14.484 28.1 31.525 28.261 30.288.321 54.716 24.252 54.716 53.715 0 28.461-23.933 50.108-55.293 50.108-8.253 0-16.093 3.207-21.87 8.819s-9.078 13.228-9.078 21.246v103.823c0 86.426 72.789 157.138 161.754 157.138zm56.077-243.322c-16.918 0-30.948-13.629-30.948-30.065V355.602c0-16.435 14.03-30.065 30.948-30.065 17.331 0 30.948 13.629 30.948 30.065v160.344c0 16.435-13.617 30.065-30.948 30.065" data-tags="Ticket" glyph-name="Ticket" unicode=""/><glyph d="M512 874.662c235.947 0 426.667-191.147 426.667-426.667 0-235.947-190.72-426.667-426.667-426.667-235.52 0-426.667 190.72-426.667 426.667 0 235.52 191.147 426.667 426.667 426.667m-14.933-210.346c-17.493 0-32-14.08-32-32V416.849c0-11.093 5.973-21.333 15.787-27.307l167.253-99.84c5.12-2.987 10.667-4.693 16.64-4.693 10.667 0 21.333 5.547 27.307 15.787 8.96 14.933 4.267 34.56-11.093 43.947l-151.893 90.453v197.12c0 17.92-14.507 32-32 32z" data-tags="Time Circle" glyph-name="Time-Circle" unicode=""/><glyph d="M697.169 874.662c144.64 0 241.493-101.504 241.493-252.544V273.531c0-150.656-96.853-252.203-241.493-252.203h-369.92c-144.64 0-241.92 101.547-241.92 252.203v348.587c0 151.04 97.28 252.544 241.92 252.544zM497.062 664.785c-17.493 0-32-14.549-32-32V417.276c0-11.093 5.973-21.76 15.787-27.307l167.253-99.84c5.12-3.413 11.093-4.693 16.64-4.693 10.667 0 21.333 5.547 27.307 15.787 9.387 14.976 4.267 34.603-11.093 43.947l-151.893 90.453v197.163c0 17.451-14.08 32-32 32z" data-tags="Time Square" glyph-name="Time-Square" unicode=""/><glyph d="M511.09 874.667c101.018 0 190.286-62.382 223.236-154.789 3.468-9.33 2.601-19.508-1.734-28.413s-12.096-15.691-21.678-18.702c-19.51-6.743-41.187 3.393-48.558 22.9-22.111 62.806-82.765 104.79-150.399 104.79-88.488 0-159.981-69.591-160.458-154.789v-57.251l-.52-.085h341.553c100.584 0 182.135-79.769 182.135-178.156V199.489c0-98.387-81.551-178.156-182.135-178.156H331.426c-100.541 0-182.092 79.769-182.092 178.156v210.683c0 80.914 55.495 148.47 131.02 170.183l-4.726-.551v65.011c.867 126.757 106.264 229.851 235.462 229.851zm.693-485.656c-20.811 0-37.719-16.539-37.719-36.895V257.97c0-20.78 16.909-37.319 37.719-37.319 21.244 0 38.153 16.539 38.153 37.319v94.146c0 20.356-16.909 36.895-38.153 36.895" data-tags="Unlock" glyph-name="Unlock" unicode=""/><glyph d="M85.333 393.068c0 102.896 80.124 187.358 180.53 192.1l8.91.21h204.373V324.913c0-18.667 14.507-33.426 32.853-33.426 16.427 0 30.344 12.402 32.549 28.847l.304 4.579v260.465h203.947c101.547 0 184.975-81.522 189.659-184.076l.207-9.102V180.789c0-103.318-80.124-187.791-180.53-192.534l-8.91-.21H275.198c-101.961 0-184.998 81.931-189.66 184.111l-.206 9.067zM364.809 693.76c-12.024 11.636-13.117 29.972-3.6 42.827l3.173 3.68 124.16 124.587c6.4 6.4 14.507 9.813 23.467 9.813 6.827 0 13.653-2.185 19.169-6.335l3.871-3.478 124.16-124.587c6.4-6.4 9.813-14.933 9.813-23.04 0-8.533-3.413-17.067-9.813-23.467-11.636-11.636-29.972-12.694-42.827-3.174l-3.68 3.174-67.84 68.267v-176.64h-65.707v176.64l-67.84-68.267c-12.8-12.8-33.707-12.8-46.507 0z" data-tags="Upload" glyph-name="Upload" unicode=""/><glyph d="M507.951 768c103.34 0 175.49-71.212 175.49-173.266V301.265c0-102.053-72.15-173.266-175.49-173.266H260.823c-103.34 0-175.49 71.212-175.49 173.266v293.469c0 102.053 72.15 173.266 175.49 173.266zM851.54 666.497c18.731 9.53 40.704 8.533 58.582-2.729 17.878-11.219 28.544-30.711 28.544-52.023V284.23c0-21.355-10.667-40.804-28.544-52.023-9.771-6.108-20.694-9.226-31.702-9.226-9.173 0-18.347 2.166-26.923 6.541l-63.19 31.881c-23.382 11.869-37.888 35.693-37.888 62.159v248.896c0 26.51 14.507 50.334 37.888 62.116z" data-tags="Video" glyph-name="Video" unicode=""/><glyph d="M833.335 540.749c22.815 0 41.332-18.244 41.332-40.815 0-183.628-140.776-335.257-321.314-355.624V62.149c0-22.53-18.517-40.815-41.332-40.815-22.857 0-41.332 18.285-41.332 40.815v82.161C290.11 164.677 149.334 316.306 149.334 499.934c0 22.571 18.517 40.815 41.332 40.815s41.332-18.244 41.332-40.815c0-152.445 125.608-276.483 280.024-276.483 154.375 0 279.982 124.038 279.982 276.483 0 22.571 18.517 40.815 41.332 40.815zM519.456 874.667c85.102 0 156.813-56.488 178.76-133.588 3.017-10.571-4.96-21.061-16.037-21.061h-48.317c-14.59 0-26.452-11.673-26.452-26.081 0-14.489 11.862-26.163 26.452-26.163h44.556c14.755 0 26.742-11.796 26.742-26.367s-11.986-26.367-26.742-26.367h-44.556c-14.59 0-26.452-11.714-26.452-26.163 0-14.408 11.862-26.122 26.452-26.122h44.556c14.755 0 26.742-11.796 26.742-26.407 0-14.53-11.986-26.326-26.742-26.326h-44.556c-14.59 0-26.452-11.714-26.452-26.163 0-14.408 11.862-26.081 26.452-26.081h45.961c11.325 0 19.426-10.938 15.871-21.55-24.51-72.896-94.113-125.466-176.239-125.466h-14.921c-102.544 0-185.663 82.08-185.663 183.301v197.26c0 101.263 83.118 183.342 185.663 183.342z" data-tags="Voice 2" glyph-name="Voice-2" unicode=""/><glyph d="M833.335 540.746c22.815 0 41.332-18.244 41.332-40.815 0-183.627-140.776-335.255-321.314-355.622V62.148c0-22.53-18.517-40.815-41.332-40.815-22.857 0-41.332 18.285-41.332 40.815v82.161C290.11 164.676 149.334 316.304 149.334 499.931c0 22.571 18.517 40.815 41.332 40.815s41.332-18.244 41.332-40.815c0-152.444 125.608-276.481 280.024-276.481 154.375 0 279.982 124.037 279.982 276.481 0 22.571 18.517 40.815 41.332 40.815zM519.456 874.667c102.544 0 185.704-82.079 185.704-183.341V494.067c0-101.221-83.16-183.341-185.704-183.341h-14.921c-102.544 0-185.663 82.12-185.663 183.341v197.259c0 101.262 83.118 183.341 185.663 183.341z" data-tags="Voice" glyph-name="Voice" unicode=""/><glyph d="M544.813 832c44.569 0 86.136-32.065 101.142-83.461 5.509-21.483 7.749-43.013 9.899-63.763l2.016-18.872c7.704-62.985 7.704-372.41 0-435.853l-2.016-19.56c-1.926-19.743-3.897-40.173-9.586-61.977C631.262 97.256 591.263 64 545.843 64c-1.433 0-2.867 0-4.479.046-25.084 0-52.363 15.391-67.816 28.813L322.911 218.324h-77.357c-59.708 0-103.426 43.196-111.354 110.028-9.138 66.832-7.346 181.487 0 242.227 8.645 63.259 54.423 107.097 111.354 107.097h77.357l147.771 123.633c17.827 15.483 49.272 30.782 74.132 30.691zm229.486-139.025c17.872 12.505 42.329 8.016 54.557-10.078C872.126 619.18 896 535.765 896 447.999s-23.874-171.181-67.144-234.898c-7.346-10.765-19.35-17.223-32.206-17.223-8.018 0-15.767 2.474-22.351 7.146-17.738 12.643-22.128 37.653-9.81 55.793 34.266 50.479 53.124 117.678 53.124 189.183 0 71.55-18.858 138.703-53.124 189.183-12.318 18.14-7.928 43.15 9.81 55.793z" data-tags="Volume Down" glyph-name="Volume-Down" unicode=""/><glyph d="M871.259 820.444c15.357 15.355 39.838 15.446 55.783.045 15.493-15.491 15.493-40.511.045-55.957L195.408 32.895c-7.272-7.271-17.751-11.562-27.959-11.562-9.982 0-19.829 4.065-27.778 11.426-15.538 16.123-15.538 40.647-.136 56.047l120.599 120.585h-1.22c-60.119 0-103.887 42.453-112.017 108.391-9.079 65.938-7.272 178.845 0 238.911 8.537 62.325 54.653 105.184 112.017 105.184h78.096l149.055 121.94c18.112 15.355 50.182 29.853 74.979 30.259 45.168 0 86.723-31.569 101.628-82.151 5.872-21.272 8.175-42.453 9.982-62.821l3.568-28.859c.587-4.426 1.129-8.671 1.581-13.188zM657.75 383.129l3.048-.33c16.577-4.2 19.829-28.001 19.558-46.698-.768-54.286-2.575-92.042-5.465-115.391l-2.033-19.239c-1.942-19.465-3.93-39.608-9.711-61.105-15.041-50.492-55.376-83.28-101.222-83.28-1.491 0-2.981 0-4.517.045-25.339 0-52.802 15.175-68.385 28.407l-55.512 42.95c-21.094 15.671-14.86 40.692-3.026 55.189 5.379 6.569 46.837 45.265 91.04 86.093l17.749 16.374c47.299 43.587 92.664 85.05 95.643 87.984 6.098 5.961 19.738 10.252 25.881 8.671z" data-tags="Volume Off" glyph-name="Volume-Off" unicode=""/><glyph d="M458.992 832c44.516 0 86.035-32.065 101.023-83.461 5.503-21.483 7.74-43.013 9.888-63.763l2.013-18.872c7.695-62.985 7.695-372.41 0-435.853l-2.013-19.56c-1.924-19.743-3.892-40.173-9.574-61.977C545.341 97.256 505.388 64 460.022 64c-1.432 0-2.863 0-4.474.046-25.054 0-52.301 15.391-67.737 28.813L237.35 218.324h-77.266c-59.639 0-103.305 43.196-111.224 110.028-9.127 66.832-7.337 181.487 0 242.227 8.635 63.259 54.359 107.097 111.224 107.097h77.266l147.598 123.633c17.807 15.483 49.214 30.782 74.045 30.691zm364.051-9.432c17.807 12.643 42.279 8.016 54.494-10.078 66.931-98.531 103.797-228.027 103.797-364.486 0-136.55-36.866-266.001-103.797-364.532-7.293-10.765-19.328-17.223-32.168-17.223-7.964 0-15.659 2.474-22.281 7.146-17.717 12.689-22.102 37.653-9.843 55.793 57.894 85.293 89.793 198.527 89.793 318.816 0 120.243-31.9 233.478-89.793 318.771-12.259 18.094-7.874 43.104 9.798 55.793M688.142 692.975c17.851 12.597 42.235 8.062 54.538-10.078 43.219-63.672 67.066-147.086 67.066-234.898s-23.847-171.226-67.066-234.898c-7.337-10.765-19.328-17.223-32.168-17.223-7.964 0-15.704 2.474-22.325 7.146-17.717 12.689-22.102 37.699-9.798 55.793C712.615 309.25 731.451 376.449 731.451 448c0 71.596-18.836 138.749-53.062 189.183-12.304 18.094-7.919 43.104 9.753 55.793z" data-tags="Volume Up" glyph-name="Volume-Up" unicode=""/><glyph d="M704.664 832c147.153 0 234.003-84.676 234.003-229.623H758.14v-1.479c-83.784 0-151.704-66.22-151.704-147.906s67.92-147.906 151.704-147.906h180.527v-13.312c0-143.099-86.85-227.775-234.003-227.775H319.337c-147.153 0-234.003 84.676-234.003 227.775v312.451C85.334 747.324 172.184 832 319.337 832zm202.145-293.223c17.595 0 31.858-13.906 31.858-31.06V399.746c-.205-17.071-14.349-30.861-31.858-31.06H761.553c-42.415-.556-79.505 27.757-89.126 68.037-4.818 25.004 1.946 50.806 18.478 70.49s41.142 31.238 67.235 31.565zm-128.19-49.918h-14.033c-8.615.099-16.913-3.169-23.041-9.074s-9.576-13.956-9.576-22.356c-.001-17.623 14.542-31.967 32.616-32.169h14.033c18.013 0 32.616 14.237 32.616 31.8s-14.603 31.8-32.616 31.8zM528.308 665.976h-240.83c-17.866.001-32.409-14.012-32.616-31.43 0-17.623 14.542-31.967 32.616-32.169h240.83c18.013 0 32.616 14.237 32.616 31.8s-14.603 31.8-32.616 31.8z" data-tags="Wallet" glyph-name="Wallet" unicode=""/><glyph d="M930.556 413.217c3.074-1.728 3.688-5.392 3.811-6.789l.031-.557-3.415-220.353c0-87.898-68.105-159.577-153.862-163.971l-8.352-.213H254.805c-86.843 0-157.662 68.932-162.004 155.731l-.211 8.454-2.988 220.353s0 5.185 3.842 7.345c3.415 2.16 7.684-.432 8.111-.864 86.23-57.897 189.962-96.351 298.816-112.337 15.368-2.16 30.735 7.777 35.004 23.332 8.804 33.215 35.993 55.797 69.255 58.49l6.73.271h1.281c36.285 0 66.593-23.332 75.985-58.761 4.269-15.554 19.636-25.492 35.004-23.332 108.854 15.986 212.586 54.44 298.816 112.337l1.708.864c1.708.864 4.269 1.296 6.403 0zm-418.769-92.894c-16.044 0-29.576-12.344-31.72-28.046l-.296-4.359v-55.736c0-18.147 14.514-32.405 32.016-32.405 16.435 0 29.641 11.981 31.728 27.955l.288 4.45v55.736c0 17.715-14.087 32.405-32.016 32.405m55.067 554.344c64.032 0 116.538-48.823 124.649-111.473h84.522c89.645 0 162.641-73.883 162.641-164.617 0 0-2.561-38.411-3.415-91.9-.085-4.234-2.134-8.382-5.507-10.888-20.533-15.165-39.316-27.695-41.023-28.56-70.862-47.527-153.207-80.969-240.931-97.604-5.72-1.123-11.355 1.858-14.258 6.956-24.588 42.602-70.521 70.34-121.746 70.34-50.884 0-97.243-27.436-122.557-70.081-2.945-5.012-8.495-7.907-14.172-6.827-86.998 16.678-169.343 50.076-239.779 96.783l-40.98 28.516c-3.415 2.16-5.549 6.049-5.549 10.37-1.281 22.035-3.415 92.894-3.415 92.894 0 90.734 72.996 164.617 162.641 164.617h84.095c8.111 62.649 60.617 111.473 124.649 111.473zm0-64.81H456.719c-28.601 0-52.933-19.875-59.763-46.663h229.661c-6.83 26.788-31.162 46.663-59.763 46.663" data-tags="Work" glyph-name="Work" unicode=""/></font>
</defs>
</svg>
